<?xml version="1.0" encoding="utf-8"?>
<!-- Generator: Adobe Illustrator 25.4.1, SVG Export Plug-In . SVG Version: 6.00 Build 0)  -->
<svg version="1.1" id="Layer_1" xmlns="http://www.w3.org/2000/svg" xmlns:xlink="http://www.w3.org/1999/xlink" x="0px" y="0px"
	 viewBox="0 0 107.52 107.52" style="enable-background:new 0 0 107.52 107.52;" xml:space="preserve">
<style type="text/css">
	.st0{fill:#1D9E3E;}
	.st1{fill:#FFFFFF;}
</style>
<circle class="st0" cx="53.76" cy="53.76" r="53.76"/>
<g>
	<g>
		<path class="st1" d="M90.48,74.31c-0.85,0-1.71-0.33-2.36-0.98c-1.3-1.3-1.33-3.44-0.02-4.74c1.3-1.3,3.39-1.33,4.69-0.02
			l0.05,0.05c1.3,1.3,1.3,3.41,0,4.72C92.18,73.99,91.33,74.31,90.48,74.31z M80.99,64.83c-0.85,0-1.71-0.33-2.36-0.98
			c-1.3-1.3-1.33-3.44-0.02-4.74c1.3-1.3,3.39-1.33,4.69-0.02l0.05,0.05c1.3,1.3,1.3,3.41,0,4.72
			C82.7,64.51,81.85,64.83,80.99,64.83z M71.51,55.35c-0.85,0-1.71-0.33-2.36-0.98c-1.3-1.3-1.33-3.44-0.02-4.74
			c1.3-1.3,3.39-1.33,4.69-0.02l0.05,0.05c1.3,1.3,1.3,3.41,0,4.72C73.22,55.03,72.37,55.35,71.51,55.35z M62.03,45.87
			c-0.85,0-1.71-0.33-2.36-0.98c-1.3-1.3-1.33-3.44-0.02-4.74c1.3-1.3,3.39-1.33,4.69-0.02l0.05,0.05c1.3,1.3,1.3,3.41,0,4.72
			C63.74,45.54,62.88,45.87,62.03,45.87z M52.55,36.39c-0.85,0-1.71-0.33-2.36-0.98c-1.3-1.3-1.33-3.44-0.02-4.74
			c1.3-1.3,3.39-1.33,4.69-0.02l0.05,0.05c1.3,1.3,1.3,3.41,0,4.72C54.26,36.06,53.4,36.39,52.55,36.39z"/>
	</g>
	<g>
		<path class="st1" d="M13.87,75.11c-0.85,0-1.7-0.32-2.35-0.97c-1.31-1.3-1.31-3.41-0.01-4.72l0.24-0.24
			c1.3-1.31,3.41-1.31,4.72-0.01s1.31,3.41,0.01,4.72l-0.24,0.24C15.59,74.78,14.73,75.11,13.87,75.11z M23.51,65.41
			c-0.85,0-1.7-0.32-2.35-0.97c-1.31-1.3-1.32-3.41-0.02-4.72l0.24-0.24c1.3-1.31,3.41-1.32,4.72-0.02s1.32,3.41,0.02,4.72
			l-0.24,0.24C25.23,65.08,24.37,65.41,23.51,65.41z M33.16,55.71c-0.85,0-1.7-0.32-2.35-0.97c-1.31-1.3-1.31-3.41-0.01-4.72
			l0.24-0.24c1.3-1.31,3.41-1.31,4.72-0.01c1.31,1.3,1.31,3.41,0.01,4.72l-0.24,0.24C34.87,55.38,34.01,55.71,33.16,55.71z
			 M42.8,46.01c-0.85,0-1.7-0.32-2.35-0.97c-1.31-1.3-1.31-3.41-0.01-4.72l0.24-0.24c1.3-1.31,3.41-1.31,4.72-0.01
			s1.31,3.41,0.01,4.72l-0.24,0.24C44.51,45.68,43.65,46.01,42.8,46.01z"/>
	</g>
	<g>
		<path class="st1" d="M52.68,74.46c-0.85,0-1.71-0.33-2.36-0.98c-1.3-1.3-1.3-3.41,0-4.72l0.05-0.05c1.3-1.3,3.42-1.3,4.72,0
			s1.3,3.41,0,4.72l-0.05,0.05C54.39,74.14,53.54,74.46,52.68,74.46z M62.17,64.98c-0.86,0-1.72-0.33-2.37-0.99
			c-1.29-1.31-1.28-3.42,0.03-4.72l0.05-0.05c1.31-1.29,3.42-1.28,4.72,0.03c1.29,1.31,1.28,3.42-0.03,4.72l-0.05,0.05
			C63.86,64.66,63.01,64.98,62.17,64.98z M71.65,55.5c-0.86,0-1.72-0.33-2.37-0.99c-1.29-1.31-1.28-3.42,0.03-4.72l0.05-0.05
			c1.31-1.29,3.42-1.28,4.72,0.03c1.29,1.31,1.28,3.42-0.03,4.72L74,54.54C73.34,55.18,72.49,55.5,71.65,55.5z M81.13,46.02
			c-0.85,0-1.71-0.33-2.36-0.98c-1.3-1.3-1.3-3.41,0-4.72c1.3-1.3,3.44-1.33,4.74-0.02c1.3,1.3,1.33,3.39,0.02,4.69l-0.05,0.05
			C82.84,45.69,81.98,46.02,81.13,46.02z M90.61,36.54c-0.85,0-1.71-0.33-2.36-0.98c-1.3-1.3-1.3-3.41,0-4.72
			c1.3-1.3,3.44-1.33,4.74-0.02c1.3,1.3,1.33,3.39,0.02,4.69l-0.05,0.05C92.32,36.21,91.47,36.54,90.61,36.54z"/>
	</g>
</g>
</svg>
