<?xml version="1.0" encoding="utf-8"?>
<!-- Generator: Adobe Illustrator 25.4.1, SVG Export Plug-In . SVG Version: 6.00 Build 0)  -->
<svg version="1.1" id="Layer_1" xmlns="http://www.w3.org/2000/svg" xmlns:xlink="http://www.w3.org/1999/xlink" x="0px" y="0px"
	 viewBox="0 0 107.43 107.03" style="enable-background:new 0 0 107.43 107.03;" xml:space="preserve">
<style type="text/css">
	.st0{fill:#FFFFFF;}
	.st1{fill:#931913;}
	.st2{fill:#E8413C;}
	.st3{fill:#ED6B06;}
</style>
<g>
	<circle class="st0" cx="53.73" cy="53.76" r="53.76"/>
	<g>
		<path class="st1" d="M52.64,75c-1.67,2.15-2.67,4.85-2.67,7.79c0,2.2,0.55,4.26,1.54,6.06c-0.02,0.05-0.04,0.11-0.07,0.17
			c-12.63-1.15-22.52-11.76-22.52-24.69c0-3.1,0.57-6.06,1.61-8.8c0.97-2.57,2.36-4.94,4.09-7.02c-0.41,0.85-0.63,1.81-0.63,2.81
			c0,2.42,1.3,4.54,3.24,5.69h0.01c0.52,0.31,1.08,0.54,1.67,0.7c0.01,0,0.01,0.01,0.01,0.01c0.51,0.23,1.01,0.49,1.49,0.76
			c0.95,0.52,1.85,1.1,2.72,1.74c0.12,0.09,0.25,0.18,0.37,0.28c1.87,1.43,3.54,3.14,4.93,5.04c1.02,1.39,1.89,2.9,2.6,4.49
			c0.23,0.52,0.45,1.04,0.64,1.58C52.07,72.7,52.4,73.83,52.64,75L52.64,75z"/>
		<path class="st2" d="M78.53,64.33v0.16c-0.03,4.97-1.53,9.6-4.08,13.46c0,0,0,0,0,0.01c-4.44,6.73-12.06,11.17-20.72,11.17
			c-0.71,0-1.42-0.03-2.11-0.09h-0.01c-0.04-0.06-0.07-0.12-0.1-0.18c-0.98-1.8-1.54-3.87-1.54-6.06c0-2.93,0.99-5.63,2.67-7.79V75
			c1.12-1.45,5.86-4.04,6.61-4.45c0.01-0.01,0.01-0.01,0.01-0.01c3.41-1.86,5.72-5.47,5.72-9.61v-0.04
			c-0.01-1.59-0.35-3.11-0.97-4.47c0-0.01-0.01-0.01-0.01-0.02c-0.51-1.44-1.31-2.74-2.35-3.81c-0.39-0.41-0.82-0.79-1.28-1.13
			c-0.36-0.27-0.73-0.52-1.12-0.74c-0.12-0.82-0.19-1.65-0.19-2.5c0-1.21,0.13-2.38,0.37-3.5v-0.01c0.32-1.45,0.82-2.84,1.49-4.12
			c2.01-3.86,5.5-6.84,9.72-8.15c-2.52,2.85-4.06,6.56-4.14,10.63c-0.01,0.1-0.01,0.2-0.01,0.3c0,3.78,1.27,7.27,3.42,10.05
			c2.01,2.64,4.81,4.65,8.05,5.68C78.34,60.79,78.53,62.54,78.53,64.33z"/>
		<path class="st3" d="M64.98,60.89c0.24,3.37-2.06,7.83-5.73,9.66c-0.77,0.38-5.49,3-6.61,4.45c-0.24-1.16-0.57-2.29-0.96-3.39
			c-0.2-0.53-0.41-1.06-0.64-1.58c-0.71-1.59-1.58-3.1-2.6-4.49c-1.4-1.91-3.06-3.61-4.93-5.04c-0.12-0.1-0.25-0.19-0.37-0.28
			c-0.86-0.64-1.77-1.22-2.72-1.74c-0.08-0.18-0.16-0.37-0.23-0.55c-0.84-2.11-1.31-4.53-1.31-7.1c0-2.16,0.17-3.63,0.77-5.48
			c0.06-0.19,0.83-2.97,2.71-5.85c1-1.53,4.16-4.84,5.45-6.34c1.24-1.44,2.94-4.15,2.99-6.99c0.04-2.16-0.63-5.95-1.62-7.78
			c2.45,0.51,6.99,4.23,7.13,8.85c0.07,2.33-0.48,4.92-1.15,7.18c-0.31,1.02-0.52,2.1-0.63,3.21c-0.05,0.55-1.25,10.1,4.59,13.06
			c3.87,1.96,4.89,5.73,4.89,5.73C64.63,57.78,64.87,59.3,64.98,60.89z"/>
	</g>
</g>
</svg>
