<?xml version="1.0" encoding="utf-8"?>
<!-- Generator: Adobe Illustrator 25.4.1, SVG Export Plug-In . SVG Version: 6.00 Build 0)  -->
<svg version="1.1" id="Layer_1" xmlns="http://www.w3.org/2000/svg" xmlns:xlink="http://www.w3.org/1999/xlink" x="0px" y="0px"
	 viewBox="0 0 107.52 107.52" style="enable-background:new 0 0 107.52 107.52;" xml:space="preserve">
<style type="text/css">
	.st0{fill:#FFFFFF;}
	.st1{fill:url(#SVGID_1_);}
</style>
<g>
	<circle class="st0" cx="53.76" cy="53.76" r="53.76"/>
	<g>
		<g>
			
				<linearGradient id="SVGID_1_" gradientUnits="userSpaceOnUse" x1="13.0468" y1="6.2694" x2="116.9261" y2="128.1909" gradientTransform="matrix(1 0 0 -1 0 108.4298)">
				<stop  offset="0" style="stop-color:#FFE743"/>
				<stop  offset="0.0371" style="stop-color:#FFDF43"/>
				<stop  offset="0.2318" style="stop-color:#F9B542"/>
				<stop  offset="0.4192" style="stop-color:#F28E3E"/>
				<stop  offset="0.5944" style="stop-color:#ED6C39"/>
				<stop  offset="0.7548" style="stop-color:#E95135"/>
				<stop  offset="0.8951" style="stop-color:#E83F33"/>
				<stop  offset="1" style="stop-color:#E73832"/>
			</linearGradient>
			<path class="st1" d="M95.93,67.16c-4.36,14.28-18.74,30.18-32.38,30.18c-9.08,0-16.19-7.82-16.19-17.81
				c0-3.17,0.86-6.27,2.48-8.96c-3.86-1.93-6.51-5.67-7.54-10.13c-0.8-3.41-0.63-7.24,0.67-10.99l2.52-7.22l7.02,2.45L54.84,38
				c0.37-1.06,1.52-1.62,2.58-1.25s1.61,1.53,1.25,2.58l-2.33,6.68l7.02,2.45l2.33-6.68c0.37-1.06,1.53-1.61,2.58-1.25
				c1.05,0.37,1.61,1.52,1.25,2.58l-2.33,6.68l6.93,2.41l-2.52,7.22c-1.31,3.75-3.65,6.82-6.39,9c-3.34,2.66-7.42,3.95-11.39,3.38
				c-0.13,0.22-0.27,0.43-0.4,0.65c-1.32,2.12-2.02,4.56-2.02,7.07c0,7.84,5.22,13.75,12.13,13.75c10.55,0,24.14-13.02,28.5-27.31
				c3.11-10.16,2.04-20.98-3.01-30.47C83.97,26,75.6,19.06,65.44,15.96s-20.98-2.03-30.47,3.01c-9.49,5.05-16.43,13.42-19.53,23.58
				c-3.11,10.16-2.04,20.98,3.01,30.47s13.42,16.43,23.58,19.54c1.07,0.33,1.67,1.46,1.35,2.53c-0.33,1.07-1.46,1.67-2.53,1.35
				c-11.19-3.42-20.42-11.06-25.97-21.51c-5.56-10.45-6.73-22.37-3.31-33.56c3.42-11.19,11.06-20.41,21.51-25.97
				c10.45-5.55,22.36-6.73,33.56-3.31c11.19,3.42,20.42,11.06,25.97,21.51C98.18,44.05,99.36,55.97,95.93,67.16z"/>
		</g>
	</g>
</g>
</svg>
