<?xml version="1.0" encoding="utf-8"?>
<!-- Generator: Adobe Illustrator 25.4.1, SVG Export Plug-In . SVG Version: 6.00 Build 0)  -->
<svg version="1.1" id="Layer_1" xmlns="http://www.w3.org/2000/svg" xmlns:xlink="http://www.w3.org/1999/xlink" x="0px" y="0px"
	 viewBox="0 0 107.52 107.52" style="enable-background:new 0 0 107.52 107.52;" xml:space="preserve">
<style type="text/css">
	.st0{fill:#F6B0AC;}
	.st1{fill:#FFFFFF;}
</style>
<circle class="st0" cx="53.76" cy="53.76" r="53.76"/>
<g>
	<path class="st1" d="M44,46.74c-0.75-0.69-1.66-1.21-2.66-1.36c-1-0.17-2.02,0.02-2.99,0.3c-1.95,0.56-3.77,1.5-5.72,2.14
		c-0.97,0.34-1.98,0.58-3.01,0.73c-1.04,0.11-2.07,0.08-3.1,0.01c-2.04-0.18-4.15-0.59-5.95-1.72c-0.9-0.55-1.71-1.28-2.34-2.13
		c-0.65-0.85-1.09-1.81-1.49-2.78c-0.21-0.56-0.23-1.21,0.02-1.8c0.27-0.58,0.78-0.99,1.29-1.24c1.04-0.5,2.13-0.55,3.17-0.59
		c2.1-0.03,4.21,0.35,6.16,1.17c0.98,0.4,1.91,0.92,2.77,1.54c0.43,0.31,0.86,0.64,1.25,1.08c0.37,0.43,0.76,1.04,0.7,1.8v0.02
		l-0.01,0.04c-0.07,0.38-0.23,0.79-0.52,1.12c-0.29,0.33-0.67,0.55-1.02,0.67c-0.73,0.25-1.4,0.27-2.05,0.29
		c-1.29,0.03-2.59-0.03-3.87-0.22c-1.28-0.18-2.55-0.47-3.78-0.86c-0.62-0.19-1.23-0.41-1.82-0.64c-0.63-0.24-1.23-0.55-1.8-0.9
		c-1.14-0.71-2.13-1.58-3.04-2.49c-0.94-0.94-1.81-2.11-2.1-3.57c-0.14-0.71-0.12-1.54,0.16-2.25c0.26-0.71,0.68-1.33,1.19-1.85
		c1.02-1.05,2.36-1.61,3.67-1.94c1.32-0.32,2.65-0.39,3.96-0.37c1.29,0.01,2.67,0.22,3.94,0.59c2.57,0.76,4.79,2.16,6.96,3.34
		c1.09,0.59,2.18,1.16,3.3,1.56c1.12,0.4,2.27,0.66,3.43,0.73c0.58,0,1.18,0.01,1.65-0.09c0.52-0.14,1.05-0.33,1.59-0.59
		c1.08-0.51,2.19-1.15,3.35-1.72c2.31-1.15,4.81-2.06,7.4-2.47c2.59-0.43,5.18-0.47,7.8-0.2c2.7,0.35,5.12,1.4,7.43,2.53
		c2.3,1.17,4.49,2.51,6.58,4.03l0.78,0.58c0.26,0.21,0.5,0.38,0.81,0.68c0.51,0.52,0.9,1.02,1.3,1.51c0.79,0.98,1.56,1.95,2.39,2.82
		c0.41,0.43,0.84,0.84,1.28,1.2c0.36,0.28,0.86,0.52,1.38,0.7c1.05,0.36,2.23,0.51,3.4,0.52c2.34,0.01,4.79-0.49,6.81-1.58
		c1.01-0.55,1.94-1.27,2.65-2.12c0.35-0.41,0.65-0.91,0.76-1.26c0.03-0.05,0.03-0.31-0.02-0.45c-0.04-0.17-0.12-0.32-0.23-0.47
		c-0.48-0.6-1.63-0.92-2.76-1.01c-1.16-0.09-2.37-0.03-3.53,0.16c-2.31,0.38-4.61,1.39-6.3,2.87c-0.39,0.35-0.62,0.75-0.59,0.92
		c-0.03,0.12,0.15,0.39,0.58,0.58c0.19,0.09,0.46,0.18,0.66,0.2c0.24,0.04,0.54,0.06,0.83,0.07c0.59,0.02,1.19,0,1.79-0.04
		c2.39-0.12,4.66-0.97,6.99-1.91c1.12-0.45,2.18-1.01,3.13-1.7c0.95-0.69,1.82-1.52,2.4-2.44c0.59-0.93,0.82-1.96,0.51-2.87
		c-0.31-0.92-1.11-1.74-2.08-2.19c-1.99-0.92-4.58-0.79-6.93-0.44c-2.38,0.41-4.68,1.29-6.81,2.5c-2.12,1.22-4.06,2.75-5.77,4.52
		c-1.68,1.77-3.18,3.83-4.71,5.8c-3,3.99-5.87,8.19-7.41,12.88c-0.73,2.34-1.02,4.82-0.77,7.26c0.12,1.21,0.39,2.44,0.77,3.59
		c0.39,1.1,1.11,2.15,1.75,3.25c0.64,1.09,1.29,2.25,1.54,3.57c0.14,0.65,0.13,1.36-0.04,2.01c-0.16,0.65-0.38,1.28-0.81,1.84
		c-0.42,0.57-1.11,0.94-1.78,1.04c-0.67,0.12-1.33,0.06-1.96,0.01c-1.26-0.12-2.51-0.27-3.67,0.08l0.02-0.01l-1.74,0.81
		c-0.53,0.25-1.18,0.66-1.87,0.61c-0.65,0.02-1.31,0.01-1.96-0.16c-0.66-0.19-1.18-0.61-1.72-0.92c-1.1-0.63-2.32-1.06-3.58-1.24
		c-0.63-0.08-1.28-0.08-1.89,0.07c-0.63,0.14-1.19,0.46-1.72,0.82c0.52-0.37,1.08-0.72,1.71-0.88c0.62-0.18,1.28-0.2,1.92-0.14
		c1.29,0.15,2.53,0.55,3.68,1.15c0.57,0.31,1.09,0.7,1.68,0.84c0.6,0.14,1.23,0.14,1.86,0.11c0.63,0.03,1.12-0.32,1.72-0.62
		l1.73-0.85h0.01h0.01c1.28-0.41,2.6-0.27,3.84-0.19c1.22,0.1,2.55,0.07,3.2-0.9c0.33-0.45,0.53-1.04,0.65-1.61
		c0.13-0.57,0.13-1.16-0.01-1.73c-0.25-1.16-0.87-2.24-1.53-3.3c-0.65-1.07-1.41-2.09-1.9-3.36c-0.44-1.23-0.74-2.48-0.9-3.77
		c-0.33-2.58-0.04-5.21,0.69-7.69c1.55-4.96,4.43-9.26,7.4-13.34c1.53-2.02,2.97-4.08,4.73-6c1.77-1.88,3.8-3.53,6.03-4.86
		c2.24-1.32,4.7-2.3,7.28-2.79c1.29-0.24,2.61-0.34,3.93-0.33c1.32,0.04,2.71,0.22,4.02,0.84c1.3,0.62,2.46,1.7,2.97,3.17
		c0.25,0.74,0.3,1.55,0.16,2.3s-0.44,1.43-0.81,2.04c-1.56,2.39-3.9,3.86-6.33,4.87c-1.18,0.48-2.38,0.95-3.63,1.33
		c-1.24,0.39-2.6,0.64-3.9,0.74c-0.66,0.05-1.31,0.07-1.99,0.05c-0.34-0.01-0.67-0.03-1.05-0.09c-0.43-0.07-0.76-0.18-1.14-0.35
		c-0.37-0.17-0.74-0.4-1.07-0.76c-0.17-0.19-0.3-0.39-0.42-0.64c-0.11-0.27-0.17-0.53-0.17-0.8c-0.02-0.55,0.18-1.03,0.4-1.4
		c0.23-0.37,0.49-0.66,0.76-0.91c2.1-1.85,4.62-2.91,7.26-3.39c1.32-0.22,2.65-0.3,4.01-0.2c0.68,0.07,1.38,0.17,2.08,0.4
		s1.44,0.62,2.01,1.3c0.28,0.35,0.5,0.76,0.61,1.21c0.1,0.46,0.15,0.86,0.02,1.42c-0.27,0.87-0.68,1.44-1.13,2
		c-0.91,1.09-2.01,1.94-3.2,2.6s-2.5,1.12-3.79,1.41c-1.3,0.3-2.63,0.45-3.98,0.45c-1.35-0.01-2.7-0.18-4.04-0.64
		c-0.67-0.24-1.33-0.54-1.96-1.03c-0.54-0.44-1.02-0.91-1.47-1.39c-0.91-0.96-1.7-1.97-2.49-2.95c-0.39-0.48-0.78-0.98-1.15-1.36
		c-0.13-0.14-0.4-0.35-0.63-0.53l-0.73-0.55c-1.99-1.45-4.1-2.77-6.29-3.89c-2.19-1.1-4.49-2.07-6.8-2.38
		c-2.39-0.25-4.88-0.24-7.27,0.16c-2.4,0.37-4.7,1.19-6.9,2.28c-1.11,0.54-2.2,1.16-3.39,1.72c-0.59,0.28-1.25,0.53-1.95,0.71
		c-0.78,0.16-1.44,0.12-2.12,0.12c-1.36-0.08-2.69-0.39-3.94-0.85s-2.4-1.07-3.53-1.68c-2.23-1.24-4.34-2.55-6.62-3.25
		c-1.15-0.34-2.28-0.54-3.51-0.57c-1.21-0.04-2.41,0.01-3.55,0.27c-1.12,0.27-2.2,0.72-2.96,1.48c-0.38,0.37-0.68,0.82-0.86,1.29
		c-0.19,0.46-0.21,0.95-0.12,1.47c0.18,1.03,0.85,2.02,1.67,2.85c0.86,0.88,1.76,1.7,2.76,2.34c0.5,0.32,1.02,0.59,1.56,0.81
		c0.58,0.23,1.15,0.44,1.74,0.64c1.17,0.38,2.36,0.68,3.57,0.86c1.21,0.2,2.44,0.27,3.66,0.26c0.61,0,1.21-0.04,1.69-0.19
		c0.47-0.17,0.72-0.43,0.82-0.91l-0.01,0.06c0.08-0.59-0.68-1.34-1.46-1.89c-0.79-0.57-1.64-1.07-2.54-1.45
		c-1.8-0.78-3.77-1.17-5.75-1.2c-0.97,0-1.99,0.06-2.8,0.43c-0.41,0.18-0.73,0.45-0.91,0.8c-0.16,0.35-0.17,0.79-0.03,1.18
		c0.36,0.91,0.76,1.84,1.33,2.62c0.56,0.79,1.28,1.47,2.11,2.01c1.65,1.09,3.66,1.54,5.65,1.76c1,0.09,2.02,0.14,3,0.06
		c0.99-0.12,1.98-0.33,2.94-0.64c1.94-0.59,3.79-1.47,5.78-1.98c0.99-0.25,2.04-0.41,3.05-0.21C42.37,45.47,43.27,46.03,44,46.74z"
		/>
</g>
</svg>
