<?xml version="1.0" encoding="utf-8"?>
<!-- Generator: Adobe Illustrator 25.4.1, SVG Export Plug-In . SVG Version: 6.00 Build 0)  -->
<svg version="1.1" id="Layer_1" xmlns="http://www.w3.org/2000/svg" xmlns:xlink="http://www.w3.org/1999/xlink" x="0px" y="0px"
	 viewBox="0 0 107.52 107.52" style="enable-background:new 0 0 107.52 107.52;" xml:space="preserve">
<style type="text/css">
	.st0{fill:#FFFFFF;}
	.st1{fill:none;stroke:#223973;stroke-width:5;stroke-miterlimit:10;}
</style>
<circle class="st0" cx="53.76" cy="53.76" r="53.76"/>
<path class="st1" d="M20.86,53.48c1.7-15.35,13.83-28.37,29.26-29.21c1.82-0.1,7.28,0,7.28,0h29.26v29.21v7.39
	c-1.7,15.33-13.87,27.5-29.2,29.2"/>
<path class="st1" d="M31.75,54.69c1.14-10.28,9.26-18.99,19.58-19.55c1.22-0.07,4.88,0,4.88,0h19.58v19.55v4.95
	c-1.14,10.26-9.28,18.41-19.54,19.54"/>
<path class="st1" d="M41.34,55.76c0.64-5.8,5.23-10.72,11.06-11.04c0.69-0.04,2.75,0,2.75,0H66.2v11.04v2.79
	c-0.64,5.79-5.24,10.39-11.04,11.04"/>
</svg>
