<?xml version="1.0" encoding="utf-8"?>
<!-- Generator: Adobe Illustrator 25.4.1, SVG Export Plug-In . SVG Version: 6.00 Build 0)  -->
<svg version="1.1" id="Layer_1" xmlns="http://www.w3.org/2000/svg" xmlns:xlink="http://www.w3.org/1999/xlink" x="0px" y="0px"
	 viewBox="0 0 253.75 232.74" style="enable-background:new 0 0 253.75 232.74;" xml:space="preserve">
<style type="text/css">
	.st0{display:none;}
	.st1{display:inline;}
</style>
<g>
	<path d="M89.05,0.48h43.14v157.77c0,22.36-4.07,44.38-16.37,56.31c-12.42,12.05-30.24,17.23-49.13,17.23
		c-23.93,0-65.5-6.31-65.5-61.56l42.2,0.31c0,13.15,10.49,19.59,22.46,19.59c12.99,0,23.2-8.25,23.2-24.63V0.48z"/>
	<path d="M129.83,133.54l62.04-68.97h52.28l-71.8,80.3l80.62,86.92H201l-71.17-77.15V133.54z"/>
</g>
<g class="st0">
	<path class="st1" d="M930.35,184.05v25.55c0.01-0.4,0.01-0.81,0.01-1.22v-24.34L930.35,184.05z"/>
	<path class="st1" d="M1053.84,237.43h-54l-49.39-69.49l-19.9,19l-0.2,22.66c-0.07,10.25-1.07,19.52-3.02,27.83
		c-2.88,12.43-7.86,22.69-14.92,30.78c-11.96,13.7-29.66,20.55-53.07,20.55c-10.74,0-20.1-1.12-28.08-3.37v-39.58
		c8.19,2.05,15.65,3.07,22.4,3.07c10.43,0,17.9-3.25,22.4-9.74c4.5-6.5,6.75-16.65,6.75-30.45V-1.47h47.55v2.91
		c0.1,18.36,0.65,124.54,0.2,133.83c8.47-8.9,66.37-69.34,66.37-69.34h52.77l-68.11,74.4L1053.84,237.43z"/>
</g>
</svg>
