<?xml version="1.0" encoding="utf-8"?>
<!-- Generator: Adobe Illustrator 25.4.1, SVG Export Plug-In . SVG Version: 6.00 Build 0)  -->
<svg version="1.1" id="Layer_1" xmlns="http://www.w3.org/2000/svg" xmlns:xlink="http://www.w3.org/1999/xlink" x="0px" y="0px"
	 viewBox="0 0 118 50.9" style="enable-background:new 0 0 118 50.9;" xml:space="preserve">
<g id="Pw56VN">
	<path d="M99.9,4.5c1.7,0,3.6,0,5.2,0c0.2,0,0,0.4,0,0.6c0,0.5,0,1,0,1.6v40.5h-5.2v-2.3c-8.4,4.5-16,4.2-21.7-4.2
		c-3.4-4.9-2.6-12.6,1.3-17c2.5-2.8,5.9-4.6,9.7-4.9c3.8-0.4,7.6,0.7,10.8,2.9V4.5z M90.7,42.4c4.9,0.2,9-3.6,9.2-8.5
		c0-0.2,0-0.5,0-0.7c0.1-5-3.8-9.1-8.7-9.2c-0.1,0-0.3,0-0.4,0c-4.9-0.2-9,3.6-9.1,8.5c0,0.2,0,0.3,0,0.5
		C81.6,38.4,85.4,42.4,90.7,42.4z"/>
	<path d="M8.1,21.7c4-2.9,9.1-3.8,13.8-2.3c2.9,0.8,5.5,2.6,7.3,5.1c3.7,5.5,3.5,12.8-0.6,18c-1.6,1.9-3.7,3.4-6,4.3
		c-2.4,0.9-4.9,1.1-7.4,0.8c-2.5-0.4-4.9-1.4-7-2.9l-0.1,2.5H2.9V4.5h5.2V21.7z M26.4,33.1c0.2-4.9-3.5-9-8.4-9.2
		c-0.2,0-0.4,0-0.7,0c-5-0.1-9.1,3.8-9.3,8.7c0,0,0,0.1,0,0.1c-0.2,5.1,3.7,9.3,8.7,9.6c5.1,0.2,9.3-3.7,9.6-8.7
		C26.4,33.4,26.4,33.3,26.4,33.1z"/>
	<path d="M34.5,33.1c0.1-8.7,6.2-14.6,15.2-14.4c7.6-0.1,13.9,6.1,13.9,13.8c0,0.2,0,0.5,0,0.7c-0.1,8.5-6.2,14.6-14.7,14.5
		c-7.7,0.2-14.2-5.9-14.4-13.6C34.5,33.7,34.5,33.4,34.5,33.1z M39.8,33.1c-0.2,5,3.7,9.2,8.7,9.4c0.2,0,0.4,0,0.6,0
		c5.1,0,9.2-4.1,9.2-9.2c0-0.1,0-0.2,0-0.3c-0.2-5.1-4.4-9.1-9.5-8.9C43.9,24.3,40,28.2,39.8,33.1z"/>
	<path d="M72.3,47h-5.2v-0.8c0-8.5,0-25.4,0-26.7c1.3,0,3.9,0,5.2,0V47z"/>
	<path d="M73.5,8.1c0.1,2-1.5,3.7-3.5,3.8c-0.1,0-0.2,0-0.3,0c-2,0.1-3.7-1.6-3.8-3.6c0-0.1,0-0.1,0-0.2c0-2,1.6-3.7,3.6-3.8
		c0.1,0,0.1,0,0.2,0c2,0,3.7,1.6,3.7,3.6C73.5,8,73.5,8.1,73.5,8.1z"/>
	<path d="M112.4,47.6c-2.2,0-4-1.9-3.9-4.1c0-2.2,1.9-4,4.1-3.9c2.2,0,3.9,1.8,3.9,4c0.1,2.1-1.6,3.9-3.8,4
		C112.6,47.6,112.5,47.6,112.4,47.6z M115.7,43.6c0.1-1.8-1.2-3.3-3-3.4c-1.8-0.1-3.3,1.2-3.4,3c0,0.1,0,0.2,0,0.4
		c0,1.8,1.4,3.3,3.2,3.3c0,0,0,0,0,0C114.3,46.8,115.7,45.3,115.7,43.6L115.7,43.6z"/>
	<path d="M111,45.2v-3.4c1.4-0.4,2.5-0.2,2.9,0.5c0.3,0.6,0.1,1.4-0.6,1.8c-0.1,0-0.2,0.1-0.3,0.1c0.2,0.3,0.5,0.7,0.7,1
		c-0.1,0.1-0.2,0.2-0.3,0.3c-0.5-0.3-0.8-0.5-1.3-0.8l-0.3,0.7L111,45.2z M113.3,42.9c0-0.5-1.1-0.5-1.1-0.5v1.1
		C112.2,43.5,113.3,43.4,113.3,42.9z"/>
</g>
</svg>
