<svg id="Layer_1" data-name="Layer 1" xmlns="http://www.w3.org/2000/svg" viewBox="0 0 106.16 98.34"><g id="wt0Yvp.tif"><path d="M105.44,51.82a2.43,2.43,0,0,0-.65,2.1c.06.23-.21.64-.44.82a2.22,2.22,0,0,0-1,1.55,3.08,3.08,0,0,1-.3.81c-.33,0-.68,0-1,0a1.37,1.37,0,0,0-1.38.77c-.49.84-.65.87-1.43.33a1,1,0,0,0-1.44.28c-.19.3-.36.62-.54.94a.91.91,0,0,1-1.23.46,1.27,1.27,0,0,0-1.87.81,5.42,5.42,0,0,0-.29,1.87A2.94,2.94,0,0,1,93,65a1.71,1.71,0,0,0-.23.41c.4.11.56-.11.71-.32a4.77,4.77,0,0,0,1-2.77,5,5,0,0,1,.2-1.27.71.71,0,0,1,.9-.54c.14,0,.29,0,.43.06a1.58,1.58,0,0,0,1.71-.82c.15-.25.28-.5.43-.75s.45-.39.8-.21c1,.56,1.55.4,2.14-.64.35-.63.49-.68,1.22-.63.38,0,.77,0,1.16,0a1.69,1.69,0,0,1,.44.12,1.17,1.17,0,0,1-.18.41,1.46,1.46,0,0,0-.44,1.41.83.83,0,0,1-.35.66,1.46,1.46,0,0,0-.72,1.24c-.07,1-.3,1.18-1.37,1.19,0-.12,0-.24-.07-.36a.7.7,0,0,0-1-.5,1.8,1.8,0,0,0-.43.29,1.28,1.28,0,0,1-1.32.29,1.15,1.15,0,0,0-1.36.51,2.38,2.38,0,0,0-.34.65,1.06,1.06,0,0,1-1.06.88,1.45,1.45,0,0,0-1.42,1.29,1.29,1.29,0,0,1-.81,1,2.18,2.18,0,0,0-.57.38c-.08.08-.09.24-.17.44.52-.23.92-.4,1.32-.59a1.51,1.51,0,0,0,.77-1.19c.07-.44.26-.7.72-.69a1.61,1.61,0,0,0,1.53-1.14c.08-.15.14-.32.21-.47a.72.72,0,0,1,.83-.46,2.2,2.2,0,0,0,2-.45.39.39,0,0,1,.35,0,.32.32,0,0,1,.09.3,2.09,2.09,0,0,0,.3,1.89c.28.52.2.8-.33,1.07a1.67,1.67,0,0,0-1,1.57,1.55,1.55,0,0,1-.64,1.3A2.56,2.56,0,0,0,98,69a1.21,1.21,0,0,1-1.09.58c-.48,0-.8.35-1.06.73-.38.55-.39.54-.89.15a1.06,1.06,0,0,0-1.64.29c-.2.35-.31.74-.5,1.1s-.38.57-.56.86a1.64,1.64,0,0,0-.14.39c.14,0,.33,0,.41-.13.32-.37.61-.76.91-1.15.13-.18.23-.37.35-.55.33-.46.47-.48.9-.12A1.22,1.22,0,0,0,96.33,71a2.55,2.55,0,0,0,.3-.43.68.68,0,0,1,.9-.29,2.92,2.92,0,0,0,1.57.23c.11,0,.22.07.34.11-.06.11-.1.26-.19.31a2.38,2.38,0,0,0-1.19,1.86c0,.38-.36.57-.7.7s-.77.26-1.14.41a.91.91,0,0,0-.61.94c0,.93-.24,1.17-1.17,1.31-.43.07-.87.1-1.29.19A1.87,1.87,0,0,0,92,77c-.4.53-.82,1-1.21,1.51a3.78,3.78,0,0,0-.8-.29,1.87,1.87,0,0,0-.73.15c-.18.07-.33.23-.51.32a.83.83,0,0,1-1.08-.22,3.14,3.14,0,0,0-.84-.67,1.16,1.16,0,0,0-1.22.23c-.36.29-.69.61-1,.91a1,1,0,0,1-1.43,0,1,1,0,0,0-1.27-.17,3.6,3.6,0,0,0-1.12,1A5.86,5.86,0,0,1,78.92,82a1.11,1.11,0,0,0-.24.28l0,.14c.2,0,.45,0,.59-.11a7.06,7.06,0,0,0,1.16-1.09,15.5,15.5,0,0,0,.82-1.37,1,1,0,0,1,1.61-.29,1.73,1.73,0,0,0,2.25-.23c.27-.24.5-.52.77-.77a.67.67,0,0,1,1.13.13,1.31,1.31,0,0,0,2.14.41c.74-.48.86-.49,1.46.18a2,2,0,0,0,1.48.7c.18,0,.35.18.52.28a4,4,0,0,1-.4.42,1.25,1.25,0,0,1-.39.17,1.7,1.7,0,0,0-1.1.85,1.28,1.28,0,0,1-1.4.71,4.07,4.07,0,0,0-.78,0,.82.82,0,0,0-.86.79c-.1.48-.28.6-.77.5l-.8-.16a1.34,1.34,0,0,0-1.32.36,2.24,2.24,0,0,1-1.77.63,2.64,2.64,0,0,0-.89.34c-.17.07-.33.18-.51.25a.73.73,0,0,1-1-.38.81.81,0,0,0-1-.35,3.39,3.39,0,0,0-.55.24c-.62.34-.62.35-1.19-.1a.63.63,0,0,0-.91,0c.29.25.57.52.88.75a1.07,1.07,0,0,0,.54.19,1.49,1.49,0,0,0,.67-.14c.58-.32,1-.37,1.48.26a1.14,1.14,0,0,0,1,.22,1.62,1.62,0,0,1,1.33.31,7.57,7.57,0,0,0,1.08.49,1.48,1.48,0,0,1,.3.26l-.3.19a3.68,3.68,0,0,0-1,.69,1.21,1.21,0,0,1-1.1.53c-.26,0-.52,0-.78,0a.88.88,0,0,0-1,.83c-.12.55-.32.66-.85.44-.33-.14-.65-.33-1-.46a1.32,1.32,0,0,0-1.75.41,1.23,1.23,0,0,1-1.38.45,2.28,2.28,0,0,0-.51-.09c-.3,0-.61,0-.92.08l-.09.14a6.41,6.41,0,0,1-.16-.76,1,1,0,0,0-1-1.07c-.32,0-.64,0-1,0-.52,0-.71-.15-.8-.66a1.17,1.17,0,0,0-1.48-1c-.37.08-.72.21-1.08.31a3.13,3.13,0,0,1-.83.15,3.73,3.73,0,0,0,1.41-1.61c.12-.21.53-.31.82-.35.63-.1,1.27-.12,1.7-.71a1.21,1.21,0,0,0,.27-1c-.1-.52,0-.59.52-.71A3.12,3.12,0,0,0,73.14,82a1.35,1.35,0,0,0,.35-.84.66.66,0,0,1,.43-.62,3.48,3.48,0,0,0,.68-.38.69.69,0,0,0,.36-.77.7.7,0,0,0-.7-.48l-.32,0c.27-.5.53-1,.78-1.49a.49.49,0,0,1,.66-.23c.82.24,1,.14,1.46-.62a2.67,2.67,0,0,1,.5-.51,2.6,2.6,0,0,1,.14.66,1,1,0,0,0,.55,1c.62.35.63.67.14,1.2-.2.22-.43.43-.62.66A1.09,1.09,0,0,0,77.47,81c.44.7.39,1-.33,1.38-.44.26-.91.46-1.34.73a1.06,1.06,0,0,0-.57,1.44.85.85,0,0,1-.92,1,12.44,12.44,0,0,0-2,.09,6,6,0,0,0-1.49.67c-.08,0-.1.24-.15.36.13,0,.3.07.38,0a4.91,4.91,0,0,1,3-.53,2.94,2.94,0,0,0,1.07-.1,1.3,1.3,0,0,0,.84-1.64c-.14-.72,0-.9.67-1.15a3.74,3.74,0,0,0,1.7-.9,1.13,1.13,0,0,0,.06-1.53c-.49-.59-.49-.61,0-1.19a7.57,7.57,0,0,0,.57-.7,1.15,1.15,0,0,0-.45-1.83l-.22-.13a6.62,6.62,0,0,1,.92-.85,1.75,1.75,0,0,0,.71-1.82,4.87,4.87,0,0,1,0-.65.84.84,0,0,1,.82-.89,1.15,1.15,0,0,0,1.17-1.34c0-.29-.06-.58-.09-.87a.7.7,0,0,1,.44-.77,2.47,2.47,0,0,0,1.36-1.37.57.57,0,0,1,.15-.22c.12-.08.28-.22.38-.19s.21.22.26.36a2.72,2.72,0,0,1,.08.51,1.34,1.34,0,0,0,.52,1,.88.88,0,0,1,.23,1.39,1.44,1.44,0,0,0,0,1.94.57.57,0,0,1-.13.87c-.28.23-.57.46-.82.71a1,1,0,0,0-.08,1.42A.82.82,0,0,1,84,77.45c-.27.2-.56.35-.84.53s-.29.22-.43.32l0,.12c.13,0,.28.09.38,0a2.79,2.79,0,0,0,1.74-1.52,1.17,1.17,0,0,0-.14-1.18c-.3-.42-.25-.53.15-.85s.56-.52.85-.78c.06,0,.18-.1.22-.07.4.2.66-.06,1-.25s.52-.36.78-.55a.41.41,0,0,1,.63.1c.75.89,1,.94,2,.26a.54.54,0,0,1,.7,0,6.51,6.51,0,0,0,1.05.45.38.38,0,0,1,.18.61c-.22.31-.43.64-.63,1a.85.85,0,0,1-.75.5,1.48,1.48,0,0,0-1.41.84c-.3.65-.66,1.18-1.55,1v.18a1.16,1.16,0,0,0,.45.16,1.76,1.76,0,0,0,1.52-.86A1.4,1.4,0,0,1,91,76.66a1.83,1.83,0,0,0,1.27-1,3.42,3.42,0,0,1,.6-.71c.42-.36.57-.69.42-1s-.52-.46-1-.42a1.23,1.23,0,0,1-.79-.23,1.39,1.39,0,0,0-1.82-.13.56.56,0,0,1-.86-.12,1,1,0,0,0-1.65,0c-.21.22-.4.46-.63.66s-.49.18-.6-.21a1.59,1.59,0,0,0-.31-.64.8.8,0,0,1-.12-1.06A2.12,2.12,0,0,0,85.8,71a6.39,6.39,0,0,0-.14-1.26c.5-.22.61-.71.53-1.28,0-.18-.07-.34-.09-.52-.08-.48.05-.66.54-.72A.85.85,0,0,0,87.38,66l-.1-.24c-.32-.7-.26-.78.37-1.21a2.3,2.3,0,0,0,.58-.81,3.16,3.16,0,0,0,.14-.55c0-.08.13-.2.19-.2a.35.35,0,0,1,.26.16,2.22,2.22,0,0,0,1.11,1.15c.4.17.44.61.38,1a4.21,4.21,0,0,1-.12.51,1.18,1.18,0,0,0,.42,1.28,1,1,0,0,1,.17,1.47,1.71,1.71,0,0,0-.36,1.81,1,1,0,0,1-.3,1.1c-.31.29-.65.53-1,.8a3.59,3.59,0,0,0-.36.39,1.45,1.45,0,0,0,.25.07,3.4,3.4,0,0,0,2.1-1.84,1.46,1.46,0,0,0,0-.83A1.06,1.06,0,0,1,91.17,69a5.27,5.27,0,0,0,.47-1.06,1.09,1.09,0,0,0-.5-1.32.74.74,0,0,1-.36-.91c.08-.39.1-.8.16-1.2a.36.36,0,0,1,.08-.22,1.28,1.28,0,0,0,.27-1.66,14.67,14.67,0,0,0-1.07-1.82c-.16-.27-.34-.53-.49-.81a.55.55,0,0,1,.2-.76l.14-.1c.75-.48,1-.84.49-1.92-.17-.38-.39-.74-.56-1.12a.57.57,0,0,1,.3-.85l.16-.07c.84-.35,1-.67.68-1.54,0-.06,0-.11-.07-.16-.29-.72-.29-.75.34-1.21a1.08,1.08,0,0,0,.5-1,2.06,2.06,0,0,1,0-.43,1,1,0,0,1,.14-.28,1,1,0,0,1,.26.19,4,4,0,0,1,.24.46,1.17,1.17,0,0,0,1.35.76c.69,0,.84.1.74.78,0,.2,0,.4-.07.6-.1,1,0,1.12.86,1.55a.68.68,0,0,1,.4.9c-.09.27-.22.53-.33.79a1.5,1.5,0,0,0,.23,1.66,1.24,1.24,0,0,1,.18.7,2.79,2.79,0,0,1-.14.59c.36.16.53-.06.54-.3a4.37,4.37,0,0,0-.14-1.35,1.64,1.64,0,0,1,0-1.32,2.63,2.63,0,0,0,.26-1,1.08,1.08,0,0,0-.77-1.25.72.72,0,0,1-.54-.81c0-.19,0-.38,0-.57a1.64,1.64,0,0,0-.58-1.55,1.64,1.64,0,0,0-.5-1.88,8.35,8.35,0,0,0-1-.82.88.88,0,0,1-.27-1.26c.42-.91.39-1.08-.34-1.77l-.25-.24c-.48-.49-.49-.57-.08-1.13a1.14,1.14,0,0,0,0-1.68c-.27-.32-.54-.64-.79-1a.84.84,0,0,1,0-1.15,1.28,1.28,0,0,0,.06-1.67.78.78,0,0,1-.07-.78,9.39,9.39,0,0,0,.28-1.21,1.35,1.35,0,0,1,.32.17,1.82,1.82,0,0,0,1.21.49.78.78,0,0,1,.73.59,7.37,7.37,0,0,1,.21.84,1.06,1.06,0,0,0,.94.93c.87.15,1,.28,1,1.17a2.92,2.92,0,0,0,0,.73,1.28,1.28,0,0,0,1.1,1c.56.09.74.41.5.9a1.75,1.75,0,0,0,.2,2,2.66,2.66,0,0,1,.25.72,1.72,1.72,0,0,0,.23.32c.07-.12.2-.23.2-.34a2.86,2.86,0,0,0-.14-1,2,2,0,0,1-.08-1.39c0-.18.09-.36.13-.55a1,1,0,0,0-.84-1.29L97.16,42a.55.55,0,0,1-.5-.64c0-.27,0-.55,0-.82a1.15,1.15,0,0,0-1-1.16l-.5-.13a.85.85,0,0,1-.68-.71,2,2,0,0,0-.88-1.6c-.08-.05-.11-.34-.06-.47a.61.61,0,0,1,.41-.33c.12,0,.3.15.39.28a10.44,10.44,0,0,1,.74,1.2,2.78,2.78,0,0,1,.26.75c.05.16,0,.34.07.51s.13.17.16.16.18-.11.19-.18a1.81,1.81,0,0,0-.42-1.77,3.42,3.42,0,0,1-.44-.85,2.43,2.43,0,0,0-.26-.44,3.09,3.09,0,0,0-.43-.37c-.57-.47-.54-.45,0-1a2.61,2.61,0,0,0,.55-1c.13-.39-.1-.69-.47-.87s-.53-.22-.78-.36a.59.59,0,0,1-.26-1c.08-.14.18-.27.25-.41a.88.88,0,0,0-.19-1.14,7.86,7.86,0,0,0-.78-.62c-.43-.33-.51-.59-.23-1a1.43,1.43,0,0,0,0-1.44,1.86,1.86,0,0,1,0-.58c.2.06.46.06.57.19a1,1,0,0,0,1.31.33.72.72,0,0,1,.94.48c.12.32.2.66.32,1a.74.74,0,0,0,1.09.54c.53-.19,1.06.21,1.12.9,0,.37,0,.75,0,1.13a1,1,0,0,0,.83,1.14c.68.21.85.52.7,1.23A9,9,0,0,0,99,34.16a1.11,1.11,0,0,0,.08.36c.21-.54.43-1,.6-1.56a1.34,1.34,0,0,0-.84-1.8.79.79,0,0,1-.54-.9,2.41,2.41,0,0,0-.23-1.51,1.41,1.41,0,0,0-1.34-.8.71.71,0,0,1-.84-.55,1.14,1.14,0,0,1-.08-.61c.27-.4.57-.77.8-1.19a1,1,0,0,0,0-1.15.56.56,0,0,1,.08-.81A1.39,1.39,0,0,0,97.09,22a.89.89,0,0,1,.25-1c.13-.14.19-.36.33-.5a.91.91,0,0,1,.49-.26c.13,0,.27.18.39.3a4,4,0,0,0,.65.7c.47.3.6.51.46,1.07a3.51,3.51,0,0,0-.14.84.88.88,0,0,0,.88.94c.4,0,.53.22.5.54a11.94,11.94,0,0,1-.21,1.46c-.13.61-.1.78.39,1.15a1.1,1.1,0,0,1,.46,1.44c-.07.2-.14.41-.22.61a2,2,0,0,0-.08,1.47,4.34,4.34,0,0,1,.08.52c.1.38.22.76.34,1.19-.69.18-1,.76-1,1.54,0,.24-.28.47-.44.69,0,.06-.15.08-.23.12-1,.5-1.14.71-1,1.87a1.75,1.75,0,0,1,0,.79.84.84,0,0,1-.55.42c-.91.11-1.07.9-.87,1.6.05.18.14.35.21.53.18.51.44,1,.12,1.57,0,.07,0,.17,0,.28.42,0,.52-.29.59-.58a2.61,2.61,0,0,0-.2-1.82,2.78,2.78,0,0,1-.16-.4c-.09-.27,0-.45.29-.51l.12,0c1.22-.28,1.47-.7,1.12-1.92-.19-.67-.1-.89.57-1.18a1.52,1.52,0,0,0,1-1.57A.85.85,0,0,1,102,33a1.7,1.7,0,0,0,1.19-.93c0-.1.24-.14.36-.22,0,.16.15.35.1.46a1.87,1.87,0,0,0,.11,1.79.89.89,0,0,1-.13,1c-.38.62-.35.82.23,1.28A.51.51,0,0,1,104,37a4.9,4.9,0,0,1-.55.82,1.12,1.12,0,0,0-.16,1.5l.15.26a.94.94,0,0,1-.08,1.36,2.61,2.61,0,0,0-.59.89c-.15.66-.75,1-.94,1.65,0,.14-.27.26-.44.33a1.69,1.69,0,0,0-1.06,1.51,1.42,1.42,0,0,1-.88,1.19c-.14.06-.26.14-.39.19A1.3,1.3,0,0,0,98.21,48a4.54,4.54,0,0,1-.31,1.27,1,1,0,0,1-.61.41,1.28,1.28,0,0,0-1.1,1.65c.08.4.22.78.31,1.17a2,2,0,0,1,0,1.48.65.65,0,0,0,0,.28l.12,0c.11-.22.31-.43.32-.65,0-.66-.08-1.32-.12-2a1.65,1.65,0,0,1,0-.8,1.09,1.09,0,0,1,.67-.5A1.34,1.34,0,0,0,98.7,49c0-.13,0-.26,0-.39,0-.93.11-1.16,1-1.51a1.74,1.74,0,0,0,1.3-1.86.7.7,0,0,1,.47-.76,2.8,2.8,0,0,0,1.34-1.29c.12-.19.38-.44.53-.42s.36.3.51.5.48.75.77,1.09a1,1,0,0,1,.16,1.32c-.17.29-.36.57-.53.85a1.08,1.08,0,0,0,0,1.26c.09.13.17.27.25.41a.75.75,0,0,1-.11.94,3.56,3.56,0,0,1-1.32,1,5.26,5.26,0,0,0-.84.46,1.19,1.19,0,0,0-.34,1.77c.71,1.08.61,1.43-.59,1.92a4.07,4.07,0,0,0-1.45,1.15,2,2,0,0,1-.78.56,4.93,4.93,0,0,0-2.33,1.87.39.39,0,0,0-.1.19,3.91,3.91,0,0,0,0,.48c.12-.09.3-.16.35-.28a2.66,2.66,0,0,1,2.07-1.48,1.89,1.89,0,0,0,1.24-.86,2.07,2.07,0,0,1,1.16-.91,2.67,2.67,0,0,0,.91-.56,1.49,1.49,0,0,0,.26-2.29c-.06-.09-.1-.19-.17-.31a1.75,1.75,0,0,0,1.84-.27c.48-.43.65-.42,1.11,0ZM77.57,83.58v.17a1.55,1.55,0,0,0,.56,0,23.53,23.53,0,0,0,2.35-.7,1.51,1.51,0,0,1,1.28,0c.27.11.52.25.79.35a5.08,5.08,0,0,0,.65.15c-.39-.3-.79-.54-1.19-.79a1.54,1.54,0,0,1-.26-.25c.09-.08.16-.2.27-.25.44-.21.92-.36,1.35-.59a1.6,1.6,0,0,1,1.67.09c.5.27,1,.47,1.55.7l.05-.09-1.63-1v-.18c.46-.13.91-.28,1.38-.38a2.48,2.48,0,0,1,2.51.35c.14.14.41.15.68.25l-.81-.86.08-.14,1.58-.16v-.06l-.74-.12.2-.67a1.81,1.81,0,0,0-.37.36c-.14.13-.3.32-.47.34-.77.12-1.55.19-2.32.26-.27,0-.4-.11-.38-.39s0-.55.06-.82a.77.77,0,0,0-.16.4,1.14,1.14,0,0,1-1,1.1c-.55.13-1.08.32-1.61.5l-1,.41c-.3.13-.52.1-.52-.29s0-.62.06-.93l0-.3-.12,0a1.52,1.52,0,0,0-.16.4,4,4,0,0,0-.08.77,1.11,1.11,0,0,1-.66,1.08c-.54.27-1.09.53-1.64.78a2.91,2.91,0,0,1-1.66.4A.82.82,0,0,0,77.57,83.58ZM96.56,57l.14.08a2.24,2.24,0,0,0,.33-.43c.27-.53.51-1.07.78-1.59a1.56,1.56,0,0,1,1-.86c.46-.12.9-.3,1.35-.45l0-.12H98.78c.66-1.11,1.27-2.14,1.87-3.17a2.07,2.07,0,0,1,1.12-.91c.42-.16.83-.35,1.25-.53l0-.12-1.63.47-.11-.14c.65-1.2.83-2.63,2-3.54l-.13-.09-.48.37-.13,0,.14-1c-.06,0-.09,0-.1.07s-.11.27-.16.41a17.71,17.71,0,0,1-1.69,4.11c-.19.3-.35.31-.54,0-.08-.11-.12-.26-.19-.38s-.23-.43-.35-.64l-.15.07a2.65,2.65,0,0,1,.54,2.09,4.74,4.74,0,0,1-1.27,1.82l-.79-1-.11.09c.05.08.09.16.15.24a1.51,1.51,0,0,1,.09,2c-.49.85-.94,1.73-1.39,2.6A2.46,2.46,0,0,0,96.56,57Zm-2.51-9,0,.14c.15.06.31.11.46.18.74.35,1.07.7,1,1.44a10.56,10.56,0,0,0,0,1.26,3,3,0,0,0,.06.42h.13a2.57,2.57,0,0,0,.06-.4c0-.43,0-.87,0-1.3a2,2,0,0,1,.81-1.77,5.25,5.25,0,0,0,.71-.83,8,8,0,0,0-.9.7c-.4.28-.54.19-.6-.29a10.41,10.41,0,0,0-.26-1.58,1.35,1.35,0,0,1,.3-1.4l.69-.77-.08-.09L95.2,44.73c-.17-.34-.3-.63-.46-.9a1.43,1.43,0,0,1,.07-1.76,4.08,4.08,0,0,0,.39-.9l-.14-.06c-.18.32-.35.64-.56.94a.55.55,0,0,1-.34.21S94,42.08,94,42c-.4-1-.79-1.92-1.18-2.88a1.21,1.21,0,0,0-.14-.2,1,1,0,0,0,.09.54c.2.53.42,1,.61,1.57a1.39,1.39,0,0,1,0,.41l-.36,0-.65-.09c.06.09.07.11.08.11l.21,0a1.51,1.51,0,0,1,1.2,1c.25.69.54,1.37.8,2.06.08.21.13.43.23.76l-1.34-.15a2.66,2.66,0,0,0,.64.3,1.47,1.47,0,0,1,1.15,1.22c0,.4.1.8.13,1.21s-.07.53-.53.38ZM80.74,74l-.08,0c.18.28.35.57.52.86a1.34,1.34,0,0,1,0,1.56c-.83,1.2-1.61,2.43-2.41,3.65-.08.12-.13.26-.2.38l.21.18a3.25,3.25,0,0,1,.25-.45c.29-.39.65-.75.9-1.16a3.59,3.59,0,0,1,2.69-1.76,3.34,3.34,0,0,0,.84-.39l-.07-.18a2.57,2.57,0,0,1-2.05.34c.22-.45.46-.84.61-1.25A2.54,2.54,0,0,1,83.85,74c.14,0,.24-.2.35-.31l-.08-.08c-.42.16-.8.48-1.36.24a11.32,11.32,0,0,1,.63-1.69,10.93,10.93,0,0,1,1.17-1.39l-1,.59.05-1.11h-.06l-.44,1.55-.6-.75a2,2,0,0,0,.15.65c.09.26.28.56.21.77-.31.9-.68,1.77-1,2.65,0,0-.08.07-.18.14ZM76.59,85.73l-.16-.08c-.11.19-.24.37-.34.57a1,1,0,0,1-.93.63,8.93,8.93,0,0,0-3.18.76,1.81,1.81,0,0,0-.37.24l0,.1c.42-.12.84-.22,1.26-.36a.9.9,0,0,1,1,.29c.17.16.29.36.45.53l.94,1,.11-.09c-.08-.11-.17-.21-.24-.32l-.85-1.26c-.13-.18-.14-.39.14-.41,1.25-.06,2.59-.49,3.58.75a1.66,1.66,0,0,0,.54.34,1.05,1.05,0,0,0,.35.06l-1.08-1,.08-.16a6.69,6.69,0,0,1,3.44,0v-.55h-.53c-.45,0-.9,0-1.34,0s-.65-.15-.45-.66c.08-.19.18-.37.27-.56l-.14-.07a6.16,6.16,0,0,0-.4.71.78.78,0,0,1-.88.53,9.91,9.91,0,0,0-1.09,0c-.47,0-.59-.19-.43-.64A4.32,4.32,0,0,1,76.59,85.73ZM95.2,67.89a.53.53,0,0,1,0-.2c.89-1.1,1.82-2.13,3.39-2.24a4.28,4.28,0,0,0,1-.38l0-.14c-.51.13-1,.47-1.58.26l.55-.9-.07-.05-.5.44-.27-.22a5.45,5.45,0,0,1-.58,1,14.55,14.55,0,0,1-1.18,1c-.27.23-.47.16-.61-.15a4.45,4.45,0,0,0-.26-.48l-.1.06.17.42a.79.79,0,0,1-.13.92c-.44.5-.86,1-1.28,1.53a3.21,3.21,0,0,0-.24.45l-.21-.12L92.88,68a1.46,1.46,0,0,0,.06.63,1.65,1.65,0,0,1,0,1.5c-.48.69-1,1.36-1.47,2a2.82,2.82,0,0,0-.18.29l.14.12a6.38,6.38,0,0,0,.77-.79c.66-.91,1.29-1.85,1.92-2.78a1.67,1.67,0,0,1,1.28-.71c.25,0,.52,0,.78,0,.44-.07.88-.18,1.32-.27v-.08Zm-3.59-2,.11.06c.08-.09.2-.16.24-.27a13.21,13.21,0,0,0,.71-2.06c.17-.95.15-1.94.29-2.89a2.31,2.31,0,0,1,.58-.91,1.78,1.78,0,0,1,.49-.34.81.81,0,0,0-.49,0c-.39.13-.47.09-.43-.32s.12-.83.15-1.25a1.29,1.29,0,0,1,.68-1c.19-.12.35-.26.53-.4l0-.08-1.06.35c-.13-1.4.14-2.83-.68-4.2L93,53.78l-.12.07-.62-.31a1.24,1.24,0,0,0,.4.47,1.14,1.14,0,0,1,.54,1q0,.93-.12,1.86c0,.3-.18.41-.47.24s-.39-.19-.58-.29a1.79,1.79,0,0,0,.37.4,1.36,1.36,0,0,1,.48,1.15c-.08.64-.17,1.29-.24,1.93,0,.3-.17.42-.47.31l-.52-.16-.1.09a1.46,1.46,0,0,1,.94,1.76,2.25,2.25,0,0,0,0,.26,4.9,4.9,0,0,1-.73,3A1.36,1.36,0,0,0,91.61,65.93ZM72.83,84.49l.45-.48a7.39,7.39,0,0,0,.88-.89,2.36,2.36,0,0,1,1.92-1,3.55,3.55,0,0,0,.7-.22l0-.15a1.14,1.14,0,0,1-.38.13c-.27,0-.55,0-.83-.06a2.6,2.6,0,0,1,.15-.64,5.58,5.58,0,0,1,1.54-2.12,1.22,1.22,0,0,0,.14-.2l-.69.38-.08-.56-.51.95-.63-1a3.23,3.23,0,0,0,.2.77,1.85,1.85,0,0,1-.36,1.91c-.44.55-.92,1.08-1.41,1.59s-.65.63-1.27,0c0,0,0,0-.06,0a.88.88,0,0,0,0,.16c.3.62.31.63-.21,1.07a3,3,0,0,1-.64.44c-.89.43-1.78.84-2.67,1.25l-.39.19a.43.43,0,0,0,.35,0c1-.36,1.91-.75,2.87-1.1a2.32,2.32,0,0,1,.87-.12c.48,0,1,.07,1.43.11v-.09Zm24-49.23-.67-.12A4.91,4.91,0,0,1,97,36.22a5.18,5.18,0,0,1,.24,1.39,8,8,0,0,0,.07-2.13,2,2,0,0,1,.59-1.85,4.27,4.27,0,0,0,.41-.44,2.58,2.58,0,0,0,.19-.37l-.09,0-1.3,1.29c-.2-.58-.35-1-.53-1.47a2,2,0,0,1,.08-1.83,2.28,2.28,0,0,0,.2-.59l-.08,0-.72.94-1.49-2.81,0,.06-.68-.47.34.77-.73.13a2.24,2.24,0,0,1,1.57,1,6,6,0,0,1,.81,1.76l-.84.05a1.88,1.88,0,0,1,1.47,1.53c.09.51.24,1,.34,1.52A4,4,0,0,1,96.81,35.26ZM100,40.05c.24.48.68.88.49,1.47A8.79,8.79,0,0,1,99,44.64a1.29,1.29,0,0,0-.16.4l.12.08a3.33,3.33,0,0,0,.51-.48,9.74,9.74,0,0,0,.85-1.46,6,6,0,0,1,1.6-2.17,4.41,4.41,0,0,0,.46-.51l-.09-.1-1.08.89c0-.14,0-.18,0-.22.11-.88.22-1.75.34-2.62a.7.7,0,0,1,.23-.36c.31-.29.65-.57,1-.85a2.27,2.27,0,0,0-.74.28c-.24.11-.42.1-.37-.23a11.06,11.06,0,0,1,.71-3.16,2.33,2.33,0,0,0,0-.28.58.58,0,0,0-.27.32c-.21.79-.43,1.58-.61,2.38-.09.4-.19.47-.54.24a5.45,5.45,0,0,1-.46-.38c0,.13,0,.25.08.3a1.65,1.65,0,0,1,.57,2.06.19.19,0,0,0,0,.08c-.1.55-.2,1.09-.3,1.7Zm-5,23.65c.51-.56,1-1.16,1.53-1.67s1.42-.36,2.17-.38l-1.05-.4c1.22-.6,2.28-1.34,3.68-1.26-.46-.22-.47-.31-.14-.62l.74-.68-.09-.12a1.5,1.5,0,0,0-.25.15,4.6,4.6,0,0,1-.59.5c-.68.34-1.37.66-2.06,1s-.55.24-.73-.32c0,0,0,0-.07,0-.16.77-.16.77-.79,1.17-.37.24-.73.5-1.09.77-.67.5-.67.51-1-.25,0,0,0,0-.16-.06A2.4,2.4,0,0,1,95.06,63.7ZM99.6,25.06c-.11.07-.23.12-.33.19-.41.27-.53.26-.62-.2-.16-.79-.77-1.52-.27-2.41l-.56.09a7.74,7.74,0,0,0,.14.84c.15.65.16.65-.48.76a2.68,2.68,0,0,1,1.09,2.57l-1.21-.17s0,.07.06.08l.16.06A1.69,1.69,0,0,1,99,28.68c0,.62.14,1.23.21,1.85l.13,0a2,2,0,0,1,1-2.26.5.5,0,0,0-.29,0c-.66.26-.68.26-.8-.44C99.07,26.94,98.7,25.94,99.6,25.06ZM84.06,78.55l.13.15c.47-.42,1-.81,1.39-1.26.65-.66.88-.72,1.74-.31a5.07,5.07,0,0,0,.78.25l0-.1-1.53-.91c1.12-.86,2.22-1.48,3.52-1.09l.49-.65a.56.56,0,0,0-.24,0c-.8.16-1.59.31-2.37.49-.37.09-.53,0-.49-.42l.06-.5-.12,0a4.48,4.48,0,0,1-.16.52,2.69,2.69,0,0,1-.39.93C86,76.6,85,77.57,84.06,78.55ZM88,65.48l0,0c.13.14.24.29.38.42a1.33,1.33,0,0,1,.43,1.37c-.1.49-.24,1-.38,1.46a.9.9,0,0,1-.26.47c-.08.06-.29-.07-.53-.15a1.17,1.17,0,0,1,0,1.48c-.39.55-.77,1.12-1.15,1.68,0,.08-.1.17-.16.25a4,4,0,0,1,2.32-1.3l-.89-.12c.25-.49.48-.89.65-1.32a1.68,1.68,0,0,1,1.26-1.27s0,0,.06-.12l-.78.06a6.09,6.09,0,0,0,0-3l-.19.38Zm6,6.42-.13,0c.08.26.18.51.25.77.12.5.5,1,0,1.51a14,14,0,0,1-1.17,1,1.54,1.54,0,0,0-.19.17l0,.09,1.82-.23,0-.14-.2,0-.4-.08a2,2,0,0,1,.18-.36c.32-.38.68-.72,1-1.12a1.55,1.55,0,0,1,1.38-.66,4.61,4.61,0,0,0,.5-.07l0-.15a1.93,1.93,0,0,1-.34,0c-.16,0-.31-.09-.47-.13a1.56,1.56,0,0,1,.2-.41c.25-.24.53-.46.75-.64l-.56-.3a4.09,4.09,0,0,1-.39.86c-.36.43-.82.78-1.21,1.18-.22.22-.37.19-.49-.08Z"/><path d="M42.4,98.1c-.55-.57-1.12-1.12-1.66-1.7a1.47,1.47,0,0,1-.29-.48c-.16-.44-.09-.58.37-.7a6,6,0,0,0,3.5-2.85c.11.1.24.22.38.33a1.27,1.27,0,0,0,1.89,0,5.71,5.71,0,0,0,.77-1,1.25,1.25,0,0,1,.92-.63,5.84,5.84,0,0,1,2-.32c.07,0,.15,0,.21,0a4,4,0,0,1,.41.24c-.14.09-.27.24-.42.27a4.06,4.06,0,0,1-.78,0,1.37,1.37,0,0,0-1.43,1.08.68.68,0,0,1-.27.29c-1.05.7-2.14,1.36-3.16,2.11A4.71,4.71,0,0,0,44,95.88a3.71,3.71,0,0,0-.21.37l-1-.49-.07.11a1.75,1.75,0,0,1,0,2.23Z"/><path d="M28.35,56.66c-1,.7-1.87,1.34-2.75,2A1.12,1.12,0,0,0,25.25,60a1.3,1.3,0,0,0,1.29.8,5.39,5.39,0,0,0,3.09-.66c.7-.4,1.37-.85,2.17-1.35-.22.3-.36.52-.52.72a5.91,5.91,0,0,1-5.8,2.05,1.5,1.5,0,0,1-1.22-1.3c-.26-1.55-.5-3.11-.79-4.66a19.46,19.46,0,0,0-1.6-4.56c-.18-.38-.33-.77-.49-1.16a2.82,2.82,0,0,1,.27-2.61,9.08,9.08,0,0,1,3.43-3.11c.67-.38,1.38-.67,2.07-1s.55-.11.62-1l-2.27-.77L26,38.3c.85,0,1.69,0,2.52,0,.36,0,.51-.1.59-.44s.45-1,.35-1.36-.6-.75-.94-1.1L25,31.65c-.11-.11-.21-.23-.38-.42l.57,0c2,0,3.93,0,5.9,0,.36,0,.62-.07.74-.42L30.19,29.1l1.91-2.67,2.64,1.34,1-1.15-1.86-2.51a2.08,2.08,0,0,1-1.25-.88c-.07-.09-.28-.1-.41-.07a.83.83,0,0,1-.94-.45c-.16-.28-.37-.44-.71-.26a.13.13,0,0,1-.12,0c-.6-.27-1,.13-1.46.41l-4.62,3c-.68.43-1.2.33-1.55-.28-.25-.44-.18-.76.32-1.15,1-.79,2-1.56,3-2.33l2-1.51c.24-.18.45-.37.29-.72a.3.3,0,0,1,0-.29c.3-.37.08-.63-.14-.92-.59-.77-.59-1.12.07-1.81a9,9,0,0,1,3-2.12,1.09,1.09,0,0,1,1.6.45c1,1.39,2.06,2.76,3.06,4.17a1.13,1.13,0,0,1,.19.79,1,1,0,0,0,.16.89c.21.31.44.62.24,1,0,.05,0,.15,0,.2.49.68,1,1.35,1.5,2.05.51-.39,1-.73,1.48-1.12a.54.54,0,0,0,0-.44c-.26-.81-.54-1.61-.84-2.46l2.88-1.56,1.78,2.36c.65-.25,1.28-.51,1.91-.74.29-.1.22-.3.2-.49-.08-.85-.16-1.7-.24-2.58.38-.1.74-.2,1.1-.28A.48.48,0,0,0,47,16.6c.41-2,.85-4.07,1.27-6.11a1,1,0,0,0-.09-.6,4.94,4.94,0,1,1,9.16-.55,2,2,0,0,0,0,1c.46,2.05,1,4.08,1.42,6.12a.51.51,0,0,0,.48.45l.89.16c0,.9,0,1.75,0,2.6,0,.31.07.46.38.55.52.15,1,.34,1.6.53l1.64-2.47,3,1.38-.78,2.85c.53.34,1,.69,1.57,1a.46.46,0,0,0,.41,0c.64-.47,1.29-.94,1.89-1.46a6.44,6.44,0,0,0,.77-1l-5.61-3.78,3.46-5.06L73.92,16c.19-.26.38-.52.54-.78a.46.46,0,0,1,.76-.16c.87.6,1.75,1.19,2.61,1.8a.42.42,0,0,1,.12.69c-.2.25-.38.51-.59.79.61.42,1.18.82,1.77,1.21a1.7,1.7,0,0,1,.76,1.06c.39,1.65.76,3.3,1.17,4.93a1.1,1.1,0,0,1-.21,1l-.32.46c-.37.51-.45.52-1,.17l-5.25-3.55-.39-.25-2.39,3.5,0,.06c.32.36.58.91,1,1s.83-.28,1.24-.47l1.45-.69L77,29.47l-1.53,1.67h7.69L82.1,32.29c-1.38,1.46-2.75,2.94-4.16,4.37a1,1,0,0,0-.29,1.17,2.89,2.89,0,0,1,.11.35H80.7l.52,3.21-2.49.86c-.15.06-.35.19-.37.31a.52.52,0,0,0,.34.57c1.4.71,2.8,1.44,4.17,2.2a7.09,7.09,0,0,1,1.22,1,3.21,3.21,0,0,1,.9,3.45c-.46,1.84-1,3.68-1.38,5.54-.32,1.48-.53,3-.75,4.49a2,2,0,0,1-2.1,1.92A5.78,5.78,0,0,1,76,60a5.62,5.62,0,0,1-.44-.53c-.08-.12-.13-.25-.22-.42.66.39,1.26.78,1.89,1.1a6.2,6.2,0,0,0,3.31.88,1.15,1.15,0,0,0,1.07-1.78,2,2,0,0,0-.46-.67c-.84-.68-1.72-1.31-2.62-2L77,59.23c-.81-.31-1.61-.59-2.38-.92a.43.43,0,0,0-.63.19c-.3.46-.64.89-1,1.36l1.79,2.4-2.26,2.37L69.9,62.84a3.54,3.54,0,0,0,0,.52c.13.63.25,1.27.42,1.9a1,1,0,0,0,.34.56c1.79,1.34,3.6,2.67,5.41,4a1.37,1.37,0,0,1,.47,1.62,5.25,5.25,0,0,1-1.3,2.28,7.47,7.47,0,0,1-3.91,2.52A1.85,1.85,0,0,1,69.05,75c-.8-2-1.7-4-2.59-6-.28-.61-.68-1.16-1-1.74l-.13,0c.1.53.17,1.06.31,1.57.09.34,0,.46-.31.57-.86.36-1.71.75-2.59,1.13-.45-.74-.9-1.45-1.32-2.17-.15-.25-.29-.34-.58-.24a13.49,13.49,0,0,1-1.38.39.35.35,0,0,0-.29.4c0,.86,0,1.73,0,2.64l-3.31.46c-.25-.85-.51-1.66-.73-2.48a.39.39,0,0,0-.48-.34c-.45,0-.9,0-1.35,0a.41.41,0,0,0-.47.37c-.21.84-.46,1.67-.7,2.55l-3.26-.34-.21-3c-.61-.16-1.2-.33-1.81-.45a.46.46,0,0,0-.37.23c-.44.76-.85,1.54-1.29,2.35-.89-.32-1.78-.62-2.64-1a.42.42,0,0,0-.62.22c-1.21,1.94-2.44,3.87-3.66,5.8-.3.47-.51.56-1,.38a9.44,9.44,0,0,1-4.9-3.62c-.28-.44-.29-.63.06-1,1.28-1.49,2.57-3,3.84-4.48a1.57,1.57,0,0,0,.33-.64c.22-1,.41-2,.62-2.92a.53.53,0,0,0-.2-.6c-.4-.31-.77-.66-1.16-1l-2.54,1.51-2.11-2.49,1.94-2.23L32,57.2l-2.86.88ZM82.17,58c.29-1.58.56-3.23.89-4.87.27-1.34.62-2.66.9-4a1.93,1.93,0,0,0-.84-2.26c-.52-.33-1-.74-1.53-1.06-5.81-3.53-12.2-5.4-18.82-6.6a51.45,51.45,0,0,0-7.94-.66,63.9,63.9,0,0,0-10.26.5A60.69,60.69,0,0,0,35,41.17a46.09,46.09,0,0,0-8.58,3.34A10.71,10.71,0,0,0,23.1,47a2.57,2.57,0,0,0-.58,2.47,12.79,12.79,0,0,0,.59,1.71,22.4,22.4,0,0,1,1.54,5c.12.66.22,1.32.33,2,.56-.47,1.05-.94,1.6-1.33a42.94,42.94,0,0,1,10.06-5A49.22,49.22,0,0,1,47.3,49.47a42.24,42.24,0,0,1,9.13-.14,63,63,0,0,1,8.09,1.28C70.87,52,76.9,54.18,82.17,58ZM59.35,35.29c-.33-1-.65-2-.94-2.95-.08-.29-.21-.37-.51-.37q-15.52,0-31,0l-.44,0a1,1,0,0,0,.11.17c2.58,2.7,5.15,5.4,7.75,8.08a.58.58,0,0,0,.47.11c.5-.12,1-.29,1.5-.43l1.91-.53-3.79-4.1ZM51.89,12.67c0,.17.08.32.12.47,1.15,4.41,2.34,8.82,3.44,13.24a2.39,2.39,0,0,0,1.45,1.85,3.28,3.28,0,0,1,1.73,2.08c.28.84.53,1.7.79,2.56s.6,1.9.92,2.94c.48-.7.89-1.32,1.33-1.93a.82.82,0,0,0,.14-.76q-2.25-9.45-4.47-18.92c-.27-1.11-.54-2.22-.82-3.4A5.07,5.07,0,0,1,51.89,12.67Zm-3-1.42-4.2,19.92c.82,0,1.6,0,2.38,0a.5.5,0,0,0,.58-.41,4.85,4.85,0,0,1,2-2.89,1.55,1.55,0,0,0,.54-.85c.76-2.79,1.48-5.6,2.21-8.41a1.14,1.14,0,0,0,0-.55q-.69-2.68-1.41-5.35a.56.56,0,0,0-.18-.32C50.24,12,49.59,11.64,48.93,11.25Zm-1,43.67-.16.17c-2.3,2.74-4.59,5.48-6.91,8.19a4.22,4.22,0,0,0-1,1.81c-.22.91-.51,1.8-.77,2.71l-1.44,5c-.42-.74-.77-1.42-1.2-2a2,2,0,0,1-.32-2,.41.41,0,0,0-.05-.11L33.22,72c-.2.23-.08.4.08.6a8.08,8.08,0,0,0,3.45,2.6c.72.27.82.29,1.24-.36L47.1,60.51l2.44-3.85ZM66,17.07l14,9.37a1,1,0,0,0,.34-1c-.39-1.53-.72-3.06-1.11-4.59a1.16,1.16,0,0,0-.43-.63q-4.4-3-8.81-6l-1.38-.92ZM53.72,50.15l.31.44c3.39,4.57,6.76,9.17,10.2,13.71a29.84,29.84,0,0,1,4.67,8.16c.22.62.53,1.21.82,1.87a7.94,7.94,0,0,1,5-4.48l-4-3-.09.08c.19.9.38,1.81.55,2.71a.84.84,0,0,1-.08.52c-.46.82-.93,1.63-1.41,2.45a1.69,1.69,0,0,1-.2.23c-.86-3-1.7-6-2.56-8.91a2.16,2.16,0,0,0-.31-.71q-4.89-6.33-9.81-12.65a.56.56,0,0,0-.34-.21ZM73.45,35.26l-4.13,4.39.33.12c1,.31,1.95.61,2.92.94a.48.48,0,0,0,.59-.15q3.91-4.12,7.84-8.23c.09-.09.16-.19.28-.33L81,32c-4.19,0-8.39,0-12.58,0a.71.71,0,0,0-.51.29c-.63.87-1.22,1.76-1.82,2.64-.06.09-.11.19-.2.35ZM59.84,38c.88.1,1.67.16,2.45.29a.69.69,0,0,0,.78-.34q4.87-7.15,9.75-14.28l.45-.67L71.11,21.5ZM57.29,56.32l-1.85-2.48-1.67,1.8C52.38,54.2,51,52.83,49.7,51.36a2.34,2.34,0,0,0-2.49-1,20.38,20.38,0,0,1-2.25.31l8.77,9.2Zm-7.15,1L47.78,61c4.12,2.54,8.84,2.51,12.3-.92L57.79,57l-4,4.11ZM37.42,70.87l5.65-19.81c-.8.21-1.48.41-2.17.55a.55.55,0,0,0-.48.5c-1.16,5.56-2.31,11.11-3.52,16.65A2.8,2.8,0,0,0,37.42,70.87ZM64.26,51.5C66.11,58,68,64.45,69.81,71c.22-.45.41-.8.57-1.17a.81.81,0,0,0,0-.41c-1.16-5.52-2.35-11-3.47-16.56a1,1,0,0,0-1-1C65.4,51.81,64.87,51.64,64.26,51.5ZM56.6,7.78a4,4,0,1,0-4,4A4,4,0,0,0,56.6,7.78ZM48.5,31.15H58a3,3,0,0,0-2-2.41,1.51,1.51,0,0,1-1.11-1.38c0-.29-.21-.4-.48-.46a7.07,7.07,0,0,0-2.75,0c-.42.07-.64.22-.69.65a1.65,1.65,0,0,1-.78,1.19A3.72,3.72,0,0,0,48.5,31.15Zm-13-11.22a1.3,1.3,0,0,0-.12-.21c-1-1.4-2.08-2.8-3.14-4.2a.43.43,0,0,0-.4-.11,8.81,8.81,0,0,0-2.88,2,.55.55,0,0,0-.07.52c1,1.43,2.09,2.85,3.15,4.25a.38.38,0,0,0,.35.1,8,8,0,0,0,2.94-2.09A2.75,2.75,0,0,0,35.49,19.93ZM47,37.89a1,1,0,0,0,.21,0,73.25,73.25,0,0,1,10.58-.08c1.15.07,1.14.07,1.82-.91a.52.52,0,0,0,0-.66.65.65,0,0,0-.47-.16H47.37ZM36.11,22.73l-1.46,1L40,31a.35.35,0,0,0,.24.15c.67,0,1.34,0,2.11,0ZM71.57,36.1H65.43a.37.37,0,0,0-.25.12c-.5.72-1,1.45-1.47,2.16l4.47,1a.39.39,0,0,0,.33-.09C69.51,38.26,70.5,37.22,71.57,36.1Zm3.65,34.46a1.33,1.33,0,0,0-.26,0,2,2,0,0,0-.33.08,7.8,7.8,0,0,0-4.22,3.73,1.75,1.75,0,0,0-.12.32c-.25.86.16,1.32,1,1.1A7.19,7.19,0,0,0,75.1,73.2,6,6,0,0,0,76,71.46C76.21,70.88,75.88,70.56,75.22,70.56Zm-39-34.44c1,1,1.88,2,2.8,2.93a.39.39,0,0,0,.35.07c1-.18,1.9-.37,2.84-.58.1,0,.23-.09.25-.17.17-.74.32-1.48.47-2.25Zm28.13,30h-.54c-6.27,0-12.53,0-18.79,0-.54,0-.73.25-.91.69H64.49Zm-.31-.62A1,1,0,0,0,63,64.82c-5.68,0-11.36,0-17,0-.69,0-.71,0-.94.69Zm-.92-1.31c-.28-.33-.35-.71-.86-.7-2.73,0-5.46.09-8.19.1-.91,0-1.82-.07-2.73-.08-1.55,0-3.09,0-4.64,0-.63,0-.69,0-.89.69Zm-3,3.33,0-.08H46.63a.66.66,0,0,0,.17.1,14.59,14.59,0,0,0,3.48.61c2-.06,4,0,6,0a6,6,0,0,0,2.83-.33A4.72,4.72,0,0,1,60.12,67.55ZM62.5,51.12l-3-.46c-.68-.11-.78-.07-1.14.53l1.83,2.36ZM38.82,55.66l-.21,0c-2.73,0-5.46,0-8.19,0a3.91,3.91,0,0,0-1.32.55l.06.12c3,0,5.95,0,8.92,0C38.82,56.33,38.7,56.46,38.82,55.66Zm39,.66a3.49,3.49,0,0,0-2-.71c-2.34,0-4.68,0-7,0h-.49l.15.69Zm-54-30.84,6.33-4.2-.58-.81L23.48,25ZM68.73,57.62l.23,0h4.42c.07,0,.18,0,.21,0,.36-.41.73-.18,1.1,0a1.2,1.2,0,0,0,.38,0h1.56c.58,0,.67-.08.8-.68H68.6ZM46.49,36.12H43.81l-.47,2.24c.9-.12,1.74-.22,2.57-.35.09,0,.2-.15.23-.24C46.26,37.24,46.37,36.7,46.49,36.12ZM39.11,54.36a1.32,1.32,0,0,0-.24,0c-1.92,0-3.85,0-5.77,0a5.5,5.5,0,0,0-1.53.54l.05.09H39ZM33.33,40.52a1.28,1.28,0,0,0-1.27-.71c-1.41,0-2.83,0-4.24,0H26.51l-.1.69ZM68.19,55h7a3.91,3.91,0,0,0-1.77-.67H68.05ZM31.4,29.18a1.33,1.33,0,0,0,1.28.69c1.67,0,3.33,0,5,0l.43,0a.94.94,0,0,0-1-.67c-1.53,0-3.06,0-4.6,0Zm1.24,1.95h6.42a1,1,0,0,0-1.13-.67c-.65,0-1.31,0-2,0H32.85Zm35.8-7.23-.24.2c-.53.48-.53.47-1.15.12a1.72,1.72,0,0,0-.73-.19c-1.78,0-3.55,0-5.33,0h-.47c.07.65.07.65.63.65,2.07,0,4.13,0,6.19,0A1,1,0,0,0,68.44,23.9Zm1.15,5.93.15,0h5.63c.07,0,.17,0,.21,0s.29-.32.44-.48a1.65,1.65,0,0,0-.49-.16c-1.66,0-3.32,0-5,0A.86.86,0,0,0,69.59,29.83ZM52.23,52.93l.67-.9c.62-.84.62-.84,0-1.67a.83.83,0,0,0-1-.08c-.34.38-.66.78-1,1.19ZM68.68,31.16h.47c1.55,0,3.1,0,4.64,0,.54,0,.76-.33,1.1-.7-1.78,0-3.47,0-5.16,0A1,1,0,0,0,68.68,31.16Zm-1.21-5.82H60.83c0,.46.13.65.62.64,1.69,0,3.38,0,5.07,0A.83.83,0,0,0,67.47,25.34ZM80.23,39.83h-.47c-1.42,0-2.83,0-4.24,0-.58,0-.83.3-1.14.69h6ZM38.55,57H32.81a.9.9,0,0,0,1,.69c1.32,0,2.66,0,4,0C38.52,57.64,38.44,57.77,38.55,57ZM45.1,25.34H39A.93.93,0,0,0,40,26c1.51-.05,3,0,4.51,0H45Zm-5.93-.7h6.08l.13-.64h-.5c-1.38,0-2.77,0-4.16,0A2,2,0,0,0,39.17,24.64Zm21.16-1.29h5.24c-.19-.14-.37-.2-.43-.32-.17-.35-.45-.32-.75-.32H60.66l-.48,0ZM34.05,59h3.48c.7,0,.7,0,.72-.71H33.69Zm3.68,2c-.07,0-.09,0-.12,0-1.7,0-3.4,0-5.11,0-.13,0-.26.11-.4.17a.76.76,0,0,0,.78.52c.65,0,1.3,0,1.95,0a4.88,4.88,0,0,0,.81-.22c.16,0,.39-.12.46,0,.45.42,1,.25,1.51.27ZM33,60.24H37.9l.12-.7c-1.33,0-2.62,0-3.9,0A1.12,1.12,0,0,0,33,60.24Zm26.89-39c.14.84.14.84.81.84h4c.59,0,.59,0,.65-.66H62.58c-.06,0-.12,0-.17,0a4.41,4.41,0,0,1-.72,0C61.09,21.42,60.51,21.32,59.85,21.23ZM44.8,26.63H40c.34.63.34.63,1,.63,1.07,0,2.14,0,3.2,0C44.63,27.29,44.84,27.15,44.8,26.63Zm16.45.63c1.53,0,3,0,4.5,0,.5,0,.67-.24.82-.63H61.11ZM40.56,22.73l.23.64h4.26c.54,0,.59-.07.52-.64ZM52.79,53.51l.9,1L55,53.24l-1-1.36ZM40.15,21.41c0,.52.22.68.69.67,1.44,0,2.88,0,4.33,0,.68,0,.68,0,.75-.78a7.29,7.29,0,0,0-1,.15,10.06,10.06,0,0,0-1.08.42.51.51,0,0,1-.74-.2.53.53,0,0,0-.33-.23C41.93,21.4,41.05,21.41,40.15,21.41ZM42.77,55c1.21,0,2.36,0,3.51,0,.54,0,.76-.28,1-.69H43ZM65.7,27.91H61.45c0,.65,0,.65.63.65.92,0,1.83,0,2.74,0C65.33,28.6,65.53,28.34,65.7,27.91Zm3.17,30.36L69,59c1.06,0,2.11,0,3.16,0,.55,0,.75-.27,1-.7ZM62.12,62.9c-.38-.68-.38-.68-1-.68s-1.36,0-2,0-1,.43-1.55.68ZM74,41.15a5.54,5.54,0,0,0,5.45,0ZM34.86,53.66h4.39c0-.17.08-.32.11-.47a.62.62,0,0,0,0-.17C37.84,53,36.3,52.77,34.86,53.66ZM36,21.74c0-.48-.29-.66-.65-.44-.58.37-1.14.78-1.7,1.18-.2.15-.33.34-.16.59a.42.42,0,0,0,.64.12c.55-.36,1.1-.73,1.64-1.11A1.13,1.13,0,0,0,36,21.74ZM73.36,61.59c-.39-.69-.39-.69-1-.69H69.46c.06.69.06.69.69.69h3.21ZM32.1,41.17H27.05A4.94,4.94,0,0,0,32.1,41.17ZM67.79,53c.12.86,0,.7.78.71h2.9a3.8,3.8,0,0,0,.38,0A7.07,7.07,0,0,0,67.79,53ZM42.38,56.33c1,0,1.87,0,2.76,0,.57,0,.81-.27,1-.7H42.58Zm2.15-28.4H40.94a.89.89,0,0,0,1,.64c.63-.05,1.27,0,1.91,0S44.45,28.56,44.53,27.93ZM32.07,39.19a1.11,1.11,0,0,0-1.19-.67c-.28,0-.58,0-.87,0a.39.39,0,0,0-.28.17c-.13.28-.34.31-.61.3Q28,39,27,39a1.58,1.58,0,0,0-.36.09l0,.13ZM60.81,54.32c.25.48.52.76,1.07.7a12.69,12.69,0,0,1,1.38,0h1.11l.09-.13c-.14-.19-.26-.53-.41-.53C63,54.3,61.93,54.32,60.81,54.32ZM43.2,53.66h3.43c-.3-.44-.59-.73-1.14-.66a8.55,8.55,0,0,1-1.6,0C43.42,53,43.18,53.11,43.2,53.66Zm8.18-27.58h3.18l-.21-.78H52.29C51.54,25.3,51.54,25.3,51.38,26.08ZM69.05,59.6c.17.27.28.63.41.63.94.05,1.89,0,2.84,0l-.15-.66Zm4.76,2.65H70.45C71.31,63.24,73.18,63.4,73.81,62.25Zm-9-33H61.72l.16.65c.69,0,1.34,0,2,0A.83.83,0,0,0,64.81,29.21Zm10.87,10h4.43l0-.17c-.12-.06-.23-.17-.34-.18-.7,0-1.39,0-2.08,0-.31,0-.61,0-.75-.35,0-.05-.16-.08-.25-.1C76.15,38.32,76,38.84,75.68,39.22ZM64.62,67.51h-3c.26.27.42.61.61.62.82.06,1.65,0,2.52,0ZM45.11,56.94H42.7c-.57,0-.63.07-.61.7.62,0,1.24,0,1.85,0A1.06,1.06,0,0,0,45.11,56.94Zm19.51-1.27H61.87l-.1.14c.22.18.43.48.66.5.77.06,1.56,0,2.38,0Zm9.93-39.25,2.17,1.47.4-.59L75,15.87Zm-25,54.5h1.63c.65,0,.7-.06.69-.76H49.48Zm6.36-.78c.2.32.32.72.48.74a16.43,16.43,0,0,0,2,0v-.77Zm-9.81-2.67c-.61,0-1.22,0-1.82,0s-.8.18-.95.7c.6,0,1.19,0,1.77,0S46,68.07,46.08,67.47ZM61.27,53.66H64c-.1-.65-.1-.65-.71-.65a4.93,4.93,0,0,1-.77,0A1.18,1.18,0,0,0,61.27,53.66ZM45.35,68.8c-.71,0-1.42,0-2.12,0-.35,0-.54.1-.61.42a3.09,3.09,0,0,0,1.88.34C45.13,69.56,45.19,69.51,45.35,68.8Zm4.09.68H51.6c.56,0,.56,0,.61-.64h-2.8Zm6.07-.65c.17.26.29.61.44.62.79,0,1.6,0,2.41,0v-.65ZM62.9,20.77h2.2c.52,0,.58-.08.54-.68-.6,0-1.21,0-1.8,0S63.07,20.26,62.9,20.77ZM44.21,29.21H41.87c.22.43.43.73,1,.66a6.17,6.17,0,0,1,.86,0C44.22,29.86,44.26,29.82,44.21,29.21Zm-9.61-.68a3,3,0,0,0-2.16-.63.81.81,0,0,0-.89.63Zm12,34.37h2.8a12.91,12.91,0,0,0-1.31-.6C47.31,62,46.93,62,46.64,62.9ZM44,58.25H42.37c-.63,0-.63,0-.68.7a9.12,9.12,0,0,1,1.17,0A1,1,0,0,0,44,58.25Zm21.27-.61c-.2-.3-.33-.66-.48-.67a17.57,17.57,0,0,0-1.92,0l0,.11c.21.2.4.53.63.56A11.86,11.86,0,0,0,65.29,57.64Zm-13.49-33h2.34c0-.46-.14-.7-.63-.64a8.37,8.37,0,0,1-1.12,0C51.82,24,51.82,24,51.8,24.63Zm-9.43-3.89.07-.13c-.25-.21-.48-.53-.76-.6-.72-.18-1.26.29-1.79.73Zm19.68,9.75c.07.67.07.67.7.67h.31c.53,0,.68-.11.83-.67Zm.49,38.34c.33.75.45.87.87.71s.89-.42,1.33-.63l0-.08ZM53.8,23.35c0-.47-.13-.74-.63-.65a2,2,0,0,1-.43,0c-.59,0-.61,0-.6.64ZM37.13,28.53c-.3-.57-.33-.58-.73-.61s-1,0-1.2.61Zm4.17,31.7c1.06.12,1.28,0,1.57-.65a6.11,6.11,0,0,1-.86,0C41.5,59.5,41.3,59.73,41.3,60.23Zm22.6-2c.38.76.68.87,1.6.64-.07-.64-.07-.64-.69-.64Zm11.6-29.7c-.26-.34-.33-.8-.81-.66a13,13,0,0,0-1.33.57l0,.09ZM43.43,52.33h1.9c-.3-.7-.89-.69-1.46-.6C43.72,51.76,43.61,52.07,43.43,52.33Zm17.74,9.23-.56-.75-.94.75ZM52.41,22h1.08l-.17-.69h-.74Zm-8.52,9.08.09-.61H42.82C43.06,30.93,43.25,31.33,43.89,31.12ZM71.8,28.54c-.67-.9-.91-.9-1.32,0Zm-9.18,23.8h1l-.24-.86Zm3.28,7.88c-.14-.72-.2-.75-1-.57C65.17,60,65.32,60.41,65.9,60.22Zm-25,1.42c.38.06.63-.14.88-.7C41,60.85,41,60.85,40.88,61.64Zm8.85-11.38.62.58.55-.66ZM46.35,19h.1l.26-1.29-.5.14ZM30,37.85h.89l-.67-.71ZM59,17.64l.16.67c0,.19.09.38.14.57C59.44,17.65,59.44,17.65,59,17.64ZM34.08,62.32l0-.07h-1l.39.44ZM63,31.94l-.64,0,.18.62Z"/><path d="M10.08,57.09a5.82,5.82,0,0,1-.48-1.4,15.46,15.46,0,0,1,.06-2.45,1.05,1.05,0,0,0-.28-1A.88.88,0,0,1,9.19,51a1.89,1.89,0,0,0,.22-1.51A.68.68,0,0,0,8.84,49l-.38-.08c-.91-.16-1.06-.38-.94-1.29A11.78,11.78,0,0,0,7.67,46c0-.84-.36-1.13-1.18-1.08-.58,0-.72-.06-.84-.63-.06-.28-.08-.57-.12-.86a1.28,1.28,0,0,0-1.2-1.21l-.2-.07a.74.74,0,0,0,.11-1.07,26.58,26.58,0,0,0-1.73-2.2,2.38,2.38,0,0,1-.73-1.52.75.75,0,0,1,.49-.82.9.9,0,0,0,.55-1.26c-.18-.58-.38-1.15-.54-1.73a.57.57,0,0,1,.44-.76.68.68,0,0,0,.5-.91,1,1,0,0,1,.37-1.1A2.05,2.05,0,0,0,4,30c.09-.23.13-.48.23-.7s.15-.15.23-.23c.08.1.2.19.22.29,0,.39.08.78.1,1.17a.62.62,0,0,0,.58.68c1.14.15,1.18.68,1,1.67,0,.2-.1.39-.12.59a.72.72,0,0,0,.51.85.56.56,0,0,1,.4.77c-.06.29-.09.57-.14.86a.83.83,0,0,0,.51,1c1,.53,1,.57.45,1.58a1.52,1.52,0,0,0,.12,2,1.69,1.69,0,0,1,.32,1.58,7,7,0,0,0,0,3,2.81,2.81,0,0,0,.22.51l.16,0a1.22,1.22,0,0,0,.08-.45,8.68,8.68,0,0,1,.18-3.48,1.85,1.85,0,0,0-.62-2.07.45.45,0,0,1-.09-.38,7.19,7.19,0,0,1,.4-1,1.22,1.22,0,0,0-.9-1.86c-.36-.05-.37-.35-.31-.65s.18-.75.22-1.14a.84.84,0,0,0-.54-.9.61.61,0,0,1-.4-.68c0-.35,0-.7,0-1a1,1,0,0,0-.94-1.06c-.42-.1-.69-.29-.71-.76a.91.91,0,0,0,.63-.88A4.64,4.64,0,0,0,5.44,27,1.77,1.77,0,0,1,5.72,25a3.62,3.62,0,0,0,.83-2l.06-.35c.16-1,.3-1,1.07-.89a.64.64,0,0,0,.72-.45,1.27,1.27,0,0,1,1.34-.88,1.38,1.38,0,0,0,.59-.22,4.6,4.6,0,0,0,.45-.32l.12.07a2.61,2.61,0,0,1-.22.63,1.45,1.45,0,0,0-.15,1.29,1.38,1.38,0,0,1-.15,1.2c-.36.64-.32.82.21,1.35a.64.64,0,0,1,.07,1,8,8,0,0,0-.77,1.15c-.24.5-.11.74.36,1,.23.14.43.33.68.52a.9.9,0,0,0,.08-.38,1.19,1.19,0,0,0-.24-.55.83.83,0,0,1,0-1.16,5.22,5.22,0,0,0,.55-1.11A.86.86,0,0,0,11,23.87a.43.43,0,0,1-.17-.63A2.15,2.15,0,0,0,11,21.5c-.09-.23.18-.6.31-.89a.6.6,0,0,1,.77-.33,1.86,1.86,0,0,1-.87,1.95.73.73,0,0,0,1-.34,6.63,6.63,0,0,0,.39-1.05c.07-.19.12-.39.18-.58a.72.72,0,0,1,.8-.51c.82,0,1.07-.18,1.23-1a3.16,3.16,0,0,1,.21-.7.78.78,0,0,1,1-.5,1,1,0,0,0,1.14-.39,1.15,1.15,0,0,1,.57-.33c.42-.08.85-.08,1.31-.12a1.19,1.19,0,0,1,0,.19c-.1.38-.19.77-.32,1.14a1.34,1.34,0,0,1-.32.54,1.06,1.06,0,0,0-.29,1.49.6.6,0,0,1-.34.85,3.8,3.8,0,0,0-.85.5c-.3.27-.53.61-.24,1.06,0,.05-.12.31-.23.34a2,2,0,0,1-.73.05,1.1,1.1,0,0,0-1.25.77c-.11.25-.22.5-.32.75a1,1,0,0,1-.92.67c-.65.05-.79.21-.86.85s-.13,1.09-.2,1.71l.33-.46,0,0a.64.64,0,0,1-.06.22c-.42.41-.7,1-1.33,1.16a1.24,1.24,0,0,0-.8,1c-.22.79-.23.79-1.06.73a.91.91,0,0,0-.94.55,2.9,2.9,0,0,0-.21.71c-.11.61-.21,1.23-.32,1.89.08,0,.24-.07.3-.16a3.38,3.38,0,0,0,.36-.74c.11-.32.19-.66.28-1A.64.64,0,0,1,9.65,31c.8.11,1.16-.22,1.25-1s.1-.69.82-.94a1.34,1.34,0,0,0,.62-.56,1.44,1.44,0,0,1,1.44-.81c.72,0,.72,0,.49.69,0,0,0,0,0,0a6.78,6.78,0,0,1-.49,2.46c-.12.24.09.69.23,1,.24.54.22.68-.27,1s-.92.56-1.34.88A1.05,1.05,0,0,0,12,35.36c.31.58.24.79-.27,1.22s-1.12,1-1.64,1.47a1.88,1.88,0,0,0-.53,1.47c0,.72.05,1.44.08,2.17a1.18,1.18,0,0,0,.08.31h.13c.07-.44.15-.87.23-1.31,0-.24.08-.48.11-.73a3.06,3.06,0,0,1,1.29-2.29,8.75,8.75,0,0,0,1.26-1.25.82.82,0,0,0,.05-1.11.75.75,0,0,1-.17-.3c0-.22-.08-.55,0-.66a.89.89,0,0,1,.73-.18c.83.25,1.25.14,1.69-.61a.65.65,0,0,1,.86-.35,4.78,4.78,0,0,0,1.11.07,2.14,2.14,0,0,0-.25.51,3.13,3.13,0,0,0-.16,1,.94.94,0,0,1-.16.71,2.92,2.92,0,0,0-.41.92,4,4,0,0,1-1.22,2.47c-.11.1-.29.1-.44.15a3.24,3.24,0,0,0-.55.19,16,16,0,0,1-1.46.81c.31-1.07.57-2.14,2-2.31-.11-.09-.13-.12-.15-.12-.6,0-.67-.16-.32-.66s.87-1.22,1.31-1.82l-.11-.1-1,1.21-.47-1.1-.1.05a2.22,2.22,0,0,1,.2.48,1.67,1.67,0,0,1-.24,1.4,15.4,15.4,0,0,0-1.56,3.18h.39a1.1,1.1,0,0,1-.76,1.18c-.8.08-1.11.39-1.08,1.23a.84.84,0,0,1-.6.92c-.57.24-.69.57-.71,1.2a1.5,1.5,0,0,1-.32,1,2.61,2.61,0,0,0-.65,2.38l.11,0a1.91,1.91,0,0,0,.06-.33,1.67,1.67,0,0,1,.8-1.4,1.37,1.37,0,0,0,.64-1.61.51.51,0,0,1,.3-.68,1.52,1.52,0,0,0,1-1.45.73.73,0,0,1,.6-.74,1.43,1.43,0,0,0,1.1-1,1.25,1.25,0,0,1,.84-.9c.14-.05.25-.19.39-.27s.26-.13.34-.09a.8.8,0,0,1,.19.34.46.46,0,0,1,0,.26,2.19,2.19,0,0,0,.2,1.71,1.32,1.32,0,0,1-.1,1,3.44,3.44,0,0,0-.25,2.4,1.79,1.79,0,0,1-.23,1,3.1,3.1,0,0,1-.49.71,1,1,0,0,0-.21,1.06,1.85,1.85,0,0,1-.52,2,2,2,0,0,0-.55,2.25s0,.05-.07.05c-1.15,0-1.4.7-1.17,1.75a5.89,5.89,0,0,0,.52,1.19c.15.32.14.58-.22.75l0,0a1.69,1.69,0,0,0-.47,2.74c.12.17.27.34.4.51a1,1,0,0,1,.19,1A2,2,0,0,0,12.37,63a2.88,2.88,0,0,1,1.32,1.85l.18,0c0-.23.11-.51,0-.69a3.52,3.52,0,0,0-.83-1.22,1.75,1.75,0,0,1-.78-2.1,1.75,1.75,0,0,0-.67-1.89,2.29,2.29,0,0,1-.56-.86.81.81,0,0,1,.62-1.15c.86-.27,1.06-.76.66-1.59a7.81,7.81,0,0,1-.51-1.1c-.23-.7,0-1,.69-1.1a1,1,0,0,0,.89-.92,1,1,0,0,1,.92-1,5.38,5.38,0,0,0,1-.47,5.83,5.83,0,0,0,0,.95,2.14,2.14,0,0,0,.29.87A1.37,1.37,0,0,1,15.85,54a1.78,1.78,0,0,0,.31,1.84.79.79,0,0,1,.13.84,10.24,10.24,0,0,1-.52,1A1.35,1.35,0,0,0,16,59.68a.74.74,0,0,1,.17.57,2.62,2.62,0,0,1-.3.85A2.08,2.08,0,0,0,15.8,63a.56.56,0,0,1,0,.42,1.36,1.36,0,0,0-.14,1.25,1.1,1.1,0,0,1-.14,1.13,1.48,1.48,0,0,0,.11,2,.55.55,0,0,1-.88-.37,9.44,9.44,0,0,0-.29-1,4.36,4.36,0,0,0-.66-1,.93.93,0,0,0-1.07-.25.63.63,0,0,1-.9-.39,2.85,2.85,0,0,0-.6-.79,1,1,0,0,0-1.51,0c-.25.26-.45.27-.7,0l-.45-.35c-.88-.67-1.33-.64-2,.06-.39-.29-.74-.61-1.13-.86A.77.77,0,0,1,5,62.13a1.65,1.65,0,0,0-.89-1.44l-.73-.46a.86.86,0,0,1-.42-1,1.89,1.89,0,0,0-.32-1.8,1.05,1.05,0,0,1-.07-1.12,3.23,3.23,0,0,0,.07-1.17c0-.19,0-.37,0-.68a4.42,4.42,0,0,1,.54.31,2.18,2.18,0,0,1,.38.47,1.33,1.33,0,0,0,1.31.74,1.28,1.28,0,0,1,1.39,1,1.78,1.78,0,0,0,2,1.41,1.23,1.23,0,0,1,1.14.87,8.21,8.21,0,0,1,.39,1.28A5.22,5.22,0,0,0,12.25,64a.37.37,0,0,0,.23,0,3.44,3.44,0,0,0-.33-.56,5.4,5.4,0,0,0-.61-.56A2.94,2.94,0,0,1,10.38,61c-.06-.52-.19-1-.27-1.54a2.22,2.22,0,0,0-2.51-2c-.6.11-.72-.45-1-.84.4-.29.34-.66.22-1a3.49,3.49,0,0,0-1.57-2A18,18,0,0,0,3.6,52.7,3.7,3.7,0,0,1,2,51a.74.74,0,0,1,0-.81,1.52,1.52,0,0,0-.07-1.85c-.1-.13-.17-.27-.26-.41-.43-.65-.42-.74.11-1.34a1.29,1.29,0,0,0,.15-1.43,1.27,1.27,0,0,1,.27-1.54,1.16,1.16,0,0,0,.32-1.23,1.88,1.88,0,0,1,0-.67.34.34,0,0,1,.26-.24.39.39,0,0,1,.34.18,1.86,1.86,0,0,0,1.37,1.19,1.28,1.28,0,0,1,.71,1c0,.16.06.34.09.51a1.43,1.43,0,0,0,1.09,1.17c.69.21.76.3.72,1A10.78,10.78,0,0,0,7,48a1.22,1.22,0,0,0,.95,1.32c.82.29,1,.5.67,1.31a2.08,2.08,0,0,0,.27,2.13,1,1,0,0,1,.2.93c-.08.26-.09.54-.16.8a2.66,2.66,0,0,0,.77,2.38A2.21,2.21,0,0,0,10.08,57.09Zm4.27.21-.18,0,.2-3.26h-.08l-.27.86-.4-.13A4.81,4.81,0,0,1,14,55.84c0,.8,0,1.61,0,2.42,0,.33-.16.37-.41.29l-.44-.15-.06.1A1.54,1.54,0,0,1,14.09,60c0,.28.08.57.11.85s.06.67.09,1l-.56,0c.85.36,1,1.1,1,1.84s.15,1.54.22,2.31l.13,0a1.53,1.53,0,0,0,.1-.5c-.11-1-.26-2-.39-3-.07-.56-.27-1.14.21-1.64,0,0,0-.07,0-.13l-.39.2c-.09-.51-.15-1-.25-1.44a2.26,2.26,0,0,1,.39-2.3s0,0,0-.06Zm-9.81-6v.14H5a1.31,1.31,0,0,1,1.12.69c.75,1.35,1.52,2.68,2.29,4a1.94,1.94,0,0,0,.17.2,2.79,2.79,0,0,0-.1-.36C8,55,7.59,54.1,7.11,53.19a1.2,1.2,0,0,1,0-1.23c.09-.17.17-.35.26-.53l-.09,0-.7,1c-.46-.89-.88-1.66-1.27-2.44a1.25,1.25,0,0,1,.1-1.24c.1-.16.17-.34.26-.52a1.62,1.62,0,0,0-.34.36,3.44,3.44,0,0,1-.41.35,1.62,1.62,0,0,1-.28-.42c-.28-.84-.54-1.7-.8-2.55-.1-.34-.19-.68-.29-1L3.17,45a8.86,8.86,0,0,1,.47.92,6.45,6.45,0,0,1,.25,1c.2.82.19.82-.64.94a2.84,2.84,0,0,0,.5.21,1,1,0,0,1,.71.72c.23.61.51,1.2.76,1.79l.25.54Zm6.81-24.37c.14-.1.18-.12.2-.16a1.63,1.63,0,0,0,.11-.23,13.21,13.21,0,0,1,2-3.26,2.18,2.18,0,0,1,1.85-1.09c-.53-.36-.56-.53-.08-.85a12.91,12.91,0,0,1,1.38-.71l-.51-.15,1-1.45-.06,0-.85.76L15.92,19a2.57,2.57,0,0,0,0,.55c0,.28,0,.64-.12.82-.5.58-1.07,1.09-1.74,1.75l-.32-.64-.15.05c.43,1.06-.41,1.48-.9,2.13L12.1,23a1.06,1.06,0,0,0,.1.51,1.16,1.16,0,0,1,0,1.18c-.29.56-.51,1.16-.75,1.75A2,2,0,0,0,11.35,26.88Zm-2-4.77-.94,2-.63-.33c.16.37.44.71.39,1-.13.83-.4,1.64-.63,2.53l-.67-.47a3.68,3.68,0,0,0,.37.65,1.31,1.31,0,0,1,.23.58c0,.79,0,1.59,0,2.38,0,.55.11,1.1.17,1.65a.33.33,0,0,0,.18-.27,6.32,6.32,0,0,0,0-.87,1.26,1.26,0,0,1,.48-1.18,3.27,3.27,0,0,0,.44-.47l-.07-.1-.81.37a7.75,7.75,0,0,1,0-2.15c0-.66.51-1,1-1.42l-.63.13A28.68,28.68,0,0,1,9.33,22.11ZM4.09,34.77c.17.53.34,1,.47,1.52s.27,1.24.42,1.86c.21.81.21.82-.61.65,0,0,0,0-.1.06a2.22,2.22,0,0,0,.32.15,1.6,1.6,0,0,1,1.1,1.11c.43,1.28.93,2.54,1.39,3.8H7.2A2,2,0,0,1,7.32,42l-.5.32c-.2-.55-.41-1-.56-1.56-.21-.7.32-1.21.49-1.83L6,39.81l-.13,0c-.3-1.15-1.24-2.23-.32-3.53L5,36.79,4.23,33.3C4,33.78,4.61,34.41,4.09,34.77Zm5.68-2-.11.06a2,2,0,0,1,0,1.91c-.34.69-.31.72-.89.18l-.1,0a1.92,1.92,0,0,1,.63,1.77,9.06,9.06,0,0,0-.13,1c0,.36,0,.72,0,1.08h.14c0-.37.08-.74.11-1.11.06-.68.21-1.29,1-1.43a.53.53,0,0,0,0-.11H9.75a4.92,4.92,0,0,1,.53-1.88c.32-.87,1.07-1.15,1.92-1.49L11,32.81l1.49-2.66c-.38.36-.38.36-.78.12,0,.32.1.68,0,.91-.43.74-1,1.44-1.51,2.28Zm3.29,13.37,0-.06-.21,0-.53,0a2.52,2.52,0,0,1,.07-.49c.27-.82.55-1.64.83-2.46.06-.19.1-.38.15-.57a3.74,3.74,0,0,0-.45.92c-.1.31-.23.54-.59.31.06.25.19.49.14.69A13.31,13.31,0,0,1,11.93,46c-.09.22-.26.19-.42.05L11,45.65c.11.54.67.86.5,1.46l-.45,1.51-.81-.37a1.54,1.54,0,0,1,.57,1.62,19.11,19.11,0,0,0,0,2.73,2.74,2.74,0,0,0,.13-.94,1.54,1.54,0,0,1,.78-1.6s0,0,0-.07c-.5,0-.53-.05-.41-.57.17-.73.35-1.45.54-2.18a1,1,0,0,1,.74-.81A1.89,1.89,0,0,0,13.06,46.15ZM9.93,63.09,10,63a5.58,5.58,0,0,1-1-1,5.34,5.34,0,0,1-.43-1.24l-.24.71a3.68,3.68,0,0,1-.49-.36l-1.5-1.5a1.72,1.72,0,0,1-.67-1.6c0-.05,0-.11-.07-.23l-.29.69L4.25,57.36l-.06.06,1.34,1.79-.68.26c.41.11.85.1,1.1.32A17,17,0,0,1,7.51,61.4l-.42.51a1.64,1.64,0,0,1,1.73.38A12.49,12.49,0,0,0,9.93,63.09Z"/><path d="M34.71,91.59A8.63,8.63,0,0,1,33.2,91a2,2,0,0,0-2.2-.1c-.87.47-1.22.41-1.87-.3a1.65,1.65,0,0,0-1.8-.51c-.88.23-1.15.07-1.47-.79a1.52,1.52,0,0,0-1.12-.93,3.63,3.63,0,0,1-.67-.15,2.76,2.76,0,0,1-.44-.46c.19-.14.36-.36.56-.41a4.22,4.22,0,0,1,.87,0c.87,0,1.08-.16,1.24-1,0-.11,0-.23.05-.34a.64.64,0,0,1,.94-.55c.25.1.49.24.75.34a1.33,1.33,0,0,0,1.55-.33,1.32,1.32,0,0,1,1.73-.4,2.05,2.05,0,0,0,.6.06l-.24-.47.05-.12a12.48,12.48,0,0,1,1.89.77c.21.12.29.63.29,1a1.29,1.29,0,0,0,.77,1.33,2.6,2.6,0,0,0,.79.18L38,88a1.35,1.35,0,0,0,.33,0c-.19-.17-.3-.35-.44-.39-.61-.17-1.22-.32-1.84-.45C35.7,87,35.31,87,35,86.93s-.58-.31-.47-.82a1.13,1.13,0,0,0-.79-1.63c-.44-.21-.94-.26-1.39-.45s-.58-.41-.45-.93a1.32,1.32,0,0,0-.65-1.63c-.34-.22-.71-.39-1-.61s-.5-.52-.24-.94a1.42,1.42,0,0,0,0-1.56,1.16,1.16,0,0,1-.07-.42,1.87,1.87,0,0,1,.4.13c.2.12.37.28.56.4a.8.8,0,0,0,1,0,.46.46,0,0,1,.74,0c.2.19.39.39.57.59a1.11,1.11,0,0,0,1.07.46c.66-.14,1.08.27,1.56.63a.74.74,0,0,0,.52.93A1,1,0,0,1,37,82.28a.8.8,0,0,0,.36.61,2.6,2.6,0,0,1,1.16,1.18c.1.22.46.34.73.46a2.61,2.61,0,0,0,.5.12.32.32,0,0,1,.23.47,1.6,1.6,0,0,0-.12.37A1.11,1.11,0,0,0,41,86.83c.58.08.58.08.87-.24-.27-.08-.5-.17-.74-.23-.5-.12-.57-.23-.43-.72l.12-.46a.75.75,0,0,0-.6-1,3.94,3.94,0,0,0-.47-.1.76.76,0,0,1-.73-.7c-.06-.28-.43-.55-.71-.74s-.44-.28-.42-.58a1.35,1.35,0,0,0-.92-1.42.2.2,0,0,1-.1-.08.51.51,0,0,1-.07-.15,2.57,2.57,0,0,1,.49,0,9.2,9.2,0,0,0,1,.26,1.66,1.66,0,0,0,.83-.07,1.28,1.28,0,0,1,1.41.18l.61.5a1.2,1.2,0,0,0,1.54.19.66.66,0,0,1,.81.1,13.52,13.52,0,0,1,1,1c.32.36.6.75.94,1.08a1,1,0,0,0,.58.18c.38,0,.58.25.48.61-.27,1-.24,1.05.8,1.34a5.71,5.71,0,0,0,.87.24,3.47,3.47,0,0,0-.64-.52c-.36-.2-.53-.4-.38-.86a1.21,1.21,0,0,0-.17-.76,1.2,1.2,0,0,1-.06-1,6.77,6.77,0,0,0,.21-1.14s.11,0,.13,0a1.94,1.94,0,0,0,1.54.4c.12,0,.28.12.38.23a3.38,3.38,0,0,1,.27.5c.36.69.62.79,1.35.54.57-.2.86,0,1,.56a7,7,0,0,0,.61,1.37c.17.34.24.59-.13.85s-.38.91-.34,1.43.06.9.08,1.34c.25-.06.4-.21.42-.6s0-.81,0-1.21.15-.69.68-.75c.8-.09,1-.34,1.07-1.17a2.56,2.56,0,0,1,.13-.67c.2-.51.45-.6.95-.39a1,1,0,0,0,1.47-.35c.29-.36.51-.77.78-1.15a.55.55,0,0,1,.88-.16,1.33,1.33,0,0,0,1.4,0c.25-.11.5-.21.76-.3a.31.31,0,0,1,.26.06.28.28,0,0,1,0,.28,3.25,3.25,0,0,1-.44.54.64.64,0,0,0-.13.78c.27.64.2.83-.38,1.21-.24.16-.5.3-.73.48a.89.89,0,0,0-.34,1.24,4.16,4.16,0,0,1,.16.4.53.53,0,0,1-.45.77c-.35.08-.72.09-1.06.17-.79.21-1,.49-1.06,1.26s-.44,1.19-1.26,1a13.81,13.81,0,0,1-1.9-.56,2.37,2.37,0,0,0-1.48-.18,1,1,0,0,0-.32.13.24.24,0,0,0-.08.2c0,.06.16.12.21.09.87-.41,1.57.08,2.27.46a3.36,3.36,0,0,0,2,.53A1.3,1.3,0,0,0,57,89.71c0-.57.1-.74.66-.87s.91-.26,1.37-.39c.06,0,.17-.07.19,0,.31.33.63.11.93,0,.71-.23,1.43-.45,2.12-.75a13.07,13.07,0,0,0,1.47-.89c.15-.1.29-.24.45-.34.6-.39.94-.29,1.29.34a2.12,2.12,0,0,0,2.19.87A9.22,9.22,0,0,0,69,87.19c.57-.24.94,0,1,.57a1.07,1.07,0,0,0,1,1.06,11.29,11.29,0,0,0,1.3,0,.44.44,0,0,1,.53.47,2,2,0,0,0,.66,1.55c.1.09.1.27.15.41a1.62,1.62,0,0,1-.44,0,1.48,1.48,0,0,0-1.33.09,1.25,1.25,0,0,1-1.45-.06,1.25,1.25,0,0,0-2,.38.92.92,0,0,1-1.36.24c-.49-.3-1-.62-1.47-.91A1.48,1.48,0,0,0,64,91c-1.24.78-1.36.76-2.54-.17a3.57,3.57,0,0,0-2.56-1.1,6,6,0,0,0-1.76.64c-.16.08-.19.42-.28.64a2.16,2.16,0,0,0,.51.2,11,11,0,0,1,3.71,1.26c1.25.64,2.46,1.35,3.68,2a3.94,3.94,0,0,0,2,.35c.35,0,.73-.06,1,.33a2.48,2.48,0,0,1-1.52.37,10.6,10.6,0,0,0-1.38,0,1.32,1.32,0,0,0-1.13,1,2.53,2.53,0,0,0,.06.78,4.32,4.32,0,0,1-.73-.76,7,7,0,0,0-2.79-2.7,34.31,34.31,0,0,0-8-3.35l-.17,0c.25.57-.29.87-.47,1.32a1.39,1.39,0,0,0,0,1.21c.07.14.16.28.23.42.29.56.22.71-.38.84s-.66.32-.71.89c-.08.75-.09.72-.82,1a2.14,2.14,0,0,0-.74.54c-.38.4-.46.39-.76-.06a2,2,0,0,0-.56-.51c-.29-.18-.38-.35-.15-.66.43-.59.42-.6,0-1.23-.26-.37-.2-.68.19-.79a1,1,0,0,0,.75-1c0-.55.15-.7.7-.79.39-.07.79,0,1.16-.15a1.48,1.48,0,0,0,.64-.44,5.07,5.07,0,0,0,.45-.8c-.26,0-.5-.09-.75-.12s-.64,0-.95-.06a.35.35,0,0,1-.27-.21.42.42,0,0,1,.18-.31,4.56,4.56,0,0,1,.62-.28.55.55,0,0,0-.74,0c-.34.24-.65.53-1,.76a1.58,1.58,0,0,1-.66.26,1.9,1.9,0,0,0-1.25.79c-.2.27-.39.56-.62.83a.75.75,0,0,1-1.11.16,3.1,3.1,0,0,0-1-.46,2.42,2.42,0,0,0-1.8.72c-.33.28-.69.52-1,.77a.75.75,0,0,1-.89,0c-.21-.13-.43-.24-.65-.36a.9.9,0,0,0-1.25.18c-.29.26-.54.57-.83.82-.48.41-.68.36-1.11-.09a1,1,0,0,0-.65-.33,12.87,12.87,0,0,0-1.49.25,1.56,1.56,0,0,1-.41.08.49.49,0,0,1-.33-.23c0-.06.06-.25.15-.31.38-.23.77-.45,1.17-.65a.81.81,0,0,0,.5-.78c0-.75.17-.88.92-1,.18,0,.35,0,.52-.06a1,1,0,0,0,1-1.06c0-.7.15-.84.85-.86s1.45,0,2.17,0a1.25,1.25,0,0,0,1.41-1.35c-.06-.51.16-.71.67-.64a3,3,0,0,1,1,.33c.36.18.69.43,1,.64a1,1,0,0,0,1.24-.12c.19-.15.37-.33.55-.49A.93.93,0,0,1,48,87a10.16,10.16,0,0,1,.93.69l1.94,1.46c.25-.35.08-.53-.1-.66a20,20,0,0,0-1.85-1.36,10.8,10.8,0,0,0-1.82-.77.86.86,0,0,0-1.08.42c-.33.49-.68.46-1.16.19s-.73-.46-1.12-.65a1.38,1.38,0,0,0-2.09,1c-.08.73-.35.86-1.11.8a15.64,15.64,0,0,0-1.81-.06,1.56,1.56,0,0,0-1.6,1.26,1,1,0,0,1-.82.74c-.21,0-.42.07-.63.14C35,90.47,34.79,90.7,34.71,91.59Zm37.72-1.11,0-.07-1.32-.56.43-.28a1.07,1.07,0,0,0-.45.06,1.17,1.17,0,0,1-.5.1c-.73-.19-1.45-.4-2.16-.62-.33-.09-.33-.28-.1-.5l.6-.54L68.89,88a3.9,3.9,0,0,0-.46.34,1.67,1.67,0,0,1-1.47.48c-.61-.09-1.23-.14-1.85-.22-.33,0-.66-.12-1-.19l.58-1.2c-.12,0-.18,0-.21,0a4.78,4.78,0,0,1-.44.69c-.19.21-.45.49-.69.5a26.68,26.68,0,0,0-4.78.81,2.92,2.92,0,0,0-.34.13l0,.12.37,0c.78-.13,1.57-.25,2.34-.4a.81.81,0,0,1,1,.5c.2.39.42.76.64,1.13a1.64,1.64,0,0,0,.29.3l.11-.09a1.89,1.89,0,0,1-.19-.3,9.79,9.79,0,0,1-.48-1c-.14-.37,0-.66.42-.66,1,0,1.92,0,2.89.06a1,1,0,0,1,.87.6c.24.46.51.91.79,1.34a1.69,1.69,0,0,0,.35.29l.08-.09a3.87,3.87,0,0,1-.86-1.84,7.39,7.39,0,0,1,2.26.38c.84.15,1.16,1,2,1.33l-.63-.83.1-.1ZM40.26,89.7c.51.43.53.46,0,.81s-1.15.58-1.72.9-.94.56-1.4.85l.06.11,1.44-.74a2.35,2.35,0,0,0,.09.23,16.72,16.72,0,0,1,1.68-1.22,6.29,6.29,0,0,1,1.89-.8l.14.11-.58,1.56c.27-.38.46-.79.71-1.17a2.27,2.27,0,0,1,.73-.83,8,8,0,0,1,3-.7c.28,0,.37.12.3.38s-.11.48-.17.72c-.1.4-.21.8-.32,1.2l.11,0,.18-.46c.2-.5.38-1,.59-1.49a.62.62,0,0,1,.69-.39c.6,0,1.2,0,1.8,0v-.06l-1.15-.46a3.18,3.18,0,0,1-.69.15c-.6,0-1.22,0-1.82,0a1.88,1.88,0,0,1-1.51-.27l-.07,0c.22.35,0,.47-.29.57-.69.25-1.39.48-2.06.78a1.37,1.37,0,0,1-1.27.1C40.53,89.66,40.41,89.7,40.26,89.7ZM26.13,87.84a14,14,0,0,1,2.63.21l-.86.69c.72-.28,1.37-.65,2.08-.88a5.3,5.3,0,0,1,2.32.2,3.65,3.65,0,0,1-1.42,1.77.75.75,0,0,0,.43-.16,10.7,10.7,0,0,0,.83-.82,1.29,1.29,0,0,1,1.54-.53,4.57,4.57,0,0,0,.85.16c.79.13.79.13.4.82,0,0,0,.06,0,0a8.61,8.61,0,0,1,1.18-.74,5.4,5.4,0,0,1,1.09-.22c.06,0,.11-.09.17-.14s-.1-.14-.17-.16a.69.69,0,0,0-.25,0l-2.11.13a.84.84,0,0,1-.81-.4c-.22-.31-.42-.64-.62-1l0,0,.21,1.08a5.44,5.44,0,0,1-1.43-.35,4.74,4.74,0,0,1-.93-1l.26,1c-.5,0-.95,0-1.4,0s-.9-.17-1.28-.25C28.06,88.13,27,87.57,26.13,87.84ZM58.45,84a9.1,9.1,0,0,0-2.62,2.48L55.37,86A2.14,2.14,0,0,1,54,88.27l-.47-.76c0,.37.11.77,0,1s-.54.39-.82.58l0,.14a2.21,2.21,0,0,0,.59-.13,1.14,1.14,0,0,1,1.43.17,2.23,2.23,0,0,0,.48.26,3.37,3.37,0,0,0-.58-.61c-.25-.22-.26-.41,0-.63a4.26,4.26,0,0,0,.74-.73,1.11,1.11,0,0,1,1.28-.47,11.27,11.27,0,0,0,1.15.14l0-.14a2.34,2.34,0,0,0-.24-.09l-1.06-.16c-.41-.06-.47-.17-.23-.53s.41-.56.62-.84a1.93,1.93,0,0,1,1.4-.83,10.16,10.16,0,0,0,1.1-.21,1.2,1.2,0,0,0-.57-.11l-.64-.06Zm-22.33.55L36,84.6c-.37-.33-.73-.66-1.11-1A2.21,2.21,0,0,1,34,81.89l-.25.51-2.62-2.62-.06,0,.48.64-.73.27a2.4,2.4,0,0,1,.55,0,1.58,1.58,0,0,1,.78.27c.59.61,1.13,1.28,1.68,1.93a2.24,2.24,0,0,1,.2.38l-.41.21a3,3,0,0,1,1,.31c.72.57,1.38,1.23,2.06,1.85,0,0,0,.08,0,.13l-.23.27v.11a1.94,1.94,0,0,1,1.64.38c.49.29,1,.51,1.52.75l.07-.14c-.85-.54-1.69-1.09-2.55-1.6a1.59,1.59,0,0,1-.78-1.18c-.06-.37-.13-.73-.19-1.09h-.11Zm4.8-1.34a2.46,2.46,0,0,1,.46-.08,1.08,1.08,0,0,1,.57,0c.51.31,1,.65,1.47,1a3.29,3.29,0,0,1,.43.47l-1.05.61.05.12.81-.35a.94.94,0,0,1,1,.1c.48.36,1,.67,1.51,1,0,0,.1,0,.3,0-1.15-.82-2.34-1.47-2.59-2.88l-.11.64-.55-.27A1.63,1.63,0,0,1,43,83.5a6.51,6.51,0,0,1-2.21-1.65c-.36.54-.76-.06-1.15.06l1.21.62C41.19,82.7,41.29,82.88,40.92,83.19Zm9,3.06c1.14.18,1.22,1.24,1.74,1.92a4.13,4.13,0,0,0-.36-1.11,2.91,2.91,0,0,1-.51-2.27c-.4.54-.4.53-.84.14a4,4,0,0,1-1.26-1.69l-.75-.08.93,1.08-.39.47a1.5,1.5,0,0,1,1.85,1.36Zm0,8.7c-.18-1,.23-1.64.87-1.51L51,92.11a4,4,0,0,1-.42.26,4.9,4.9,0,0,1-.46.21c.22.42,0,.85-.7,1.32.49.38-.15.81,0,1.2Z"/><path d="M15,73.19c0-.22.11-.34.08-.43A1.45,1.45,0,0,0,13.71,72a2.36,2.36,0,0,1-1.26-.16,5.8,5.8,0,0,0-1.23-.13,3.08,3.08,0,0,0-.15-.5,1.82,1.82,0,0,0-1.79-1.12,3.56,3.56,0,0,1-2.09-.44,1.12,1.12,0,0,1-.6-1.15.91.91,0,0,0-.44-.92A1.92,1.92,0,0,0,6,67.42a1.78,1.78,0,0,1-1.22-1.88c0-.24-.23-.5-.28-.76a4.39,4.39,0,0,1,0-.81,4.78,4.78,0,0,1,.76.08c.35.09.67.27,1,.34A.86.86,0,0,0,7.18,64c.31-.38.62-.37,1,0a5.29,5.29,0,0,0,.87.62.89.89,0,0,0,1.18-.13.6.6,0,0,1,1,.16c.15.24.25.52.39.77a.91.91,0,0,0,1.2.48.83.83,0,0,1,1.14.47,3.64,3.64,0,0,1,.26.91,1.53,1.53,0,0,0,1.24,1.39,1.05,1.05,0,0,1,.84.93,3.36,3.36,0,0,0,.18.71,2.9,2.9,0,0,0,.45.65c.36.41.74.8,1.1,1.21s.62.76,1,1.1a1.54,1.54,0,0,0,.55.25l.09-.11a1.84,1.84,0,0,0-.15-.35c-.27-.39-.58-.75-.83-1.16a5.87,5.87,0,0,0-1.17-1.37,2.61,2.61,0,0,1-.64-1c-.23-.56-.37-1.16-.82-1.41a3.66,3.66,0,0,0-.17-.79.83.83,0,0,1,.1-1.1,2,2,0,0,0,.34-1.84c-.09-.5,0-.62.48-.62a1.37,1.37,0,0,0,1.36-1,2.36,2.36,0,0,1,.46-.55,2.48,2.48,0,0,1,.27.66,1.15,1.15,0,0,0,.54,1,.85.85,0,0,1,.45,1,1.53,1.53,0,0,0,.66,1.66.71.71,0,0,1,.26.5,4,4,0,0,0,1.05,2.51,1.12,1.12,0,0,1,.14.52c0,.27.07.55.13.81a.45.45,0,0,1-.21.55c-.75.53-.81,1-.27,1.74.2.28.33.6.51.9a1.24,1.24,0,0,0,.21.18c.06-.08.17-.17.16-.23a3.73,3.73,0,0,0-.22-.72c-.08-.17-.23-.3-.32-.47a.51.51,0,0,1,.22-.79.89.89,0,0,0,.47-1.35.68.68,0,0,1,.19-.81,5.09,5.09,0,0,0,.52-.76.7.7,0,0,1,.33-.29c.08,0,.25.13.3.24A1.42,1.42,0,0,0,25,70c.22,0,.4.45.52.72a5.43,5.43,0,0,1,.18.84,1,1,0,0,0,1.22.88c.41,0,.43.23.4.53a7.23,7.23,0,0,0-.07,1,1,1,0,0,0,.81,1,1.47,1.47,0,0,1,1,1.08,9.81,9.81,0,0,0,.51,1.15c-.6.23-.77.76-.34,1.49a1,1,0,0,1,.05,1,1.21,1.21,0,0,0,.55,1.73,7.9,7.9,0,0,1,.85.5,1.25,1.25,0,0,1,.43.65c.05.33-.1.7-.05,1a4.8,4.8,0,0,0,.46,1,5,5,0,0,1-.86-.11,1.32,1.32,0,0,0-1.56.38,1.07,1.07,0,0,1-1.11.3,6.29,6.29,0,0,0-.71-.2,1.43,1.43,0,0,0-.8,0,2.12,2.12,0,0,1-1.52.21,6.67,6.67,0,0,0-1.24.12A1.41,1.41,0,0,1,23,85.2a2.29,2.29,0,0,0-2.16-.32c-.68.23-.94,0-1.15-.68a.81.81,0,0,0-.94-.64c-.41,0-.81.1-1.21.11a.8.8,0,0,1-1-.81A1,1,0,0,0,15.9,82a9.31,9.31,0,0,1-1.06-.49c-.14-.09-.19-.32-.28-.48a1.75,1.75,0,0,1,.52-.2,2.37,2.37,0,0,1,.64.1,1.73,1.73,0,0,0,2-.76c.68-.92,1-1,2.07-.41a1.3,1.3,0,0,0,2-.44c.26-.35.48-.41.85-.17s.4.33.62.46a8,8,0,0,0,.92.48.8.8,0,0,0,1-.28c.37-.42.51-.42.82,0a4.4,4.4,0,0,0,2.42,1.8,3.77,3.77,0,0,1,1.83,1.11,1.77,1.77,0,0,0,.39.26l.11-.08a2.15,2.15,0,0,0-.23-.51,3.33,3.33,0,0,0-1.45-1.2,5.52,5.52,0,0,1-2.73-2c-.55-.74-1.14-.69-1.77,0a.45.45,0,0,1-.68.08c-.37-.25-.73-.51-1.12-.73a1.07,1.07,0,0,0-1.7.42.59.59,0,0,1-.74.29c-.26-.08-.52-.18-.77-.28a1.72,1.72,0,0,0-2.3.71,2.8,2.8,0,0,0-1.86-.61,1.2,1.2,0,0,1-1-.58,2,2,0,0,0-1.63-1,12.51,12.51,0,0,1-1.35-.3c-.37-.1-.47-.38-.32-.75.26-.67.18-1-.43-1.33-.41-.25-.85-.44-1.27-.66s-.57-.47-.41-1a1.34,1.34,0,0,0-.25-1.42c-.07-.08-.06-.25-.08-.37a.86.86,0,0,1,.39,0c.35.17.66.42,1,.56a2,2,0,0,0,1,.13,1.89,1.89,0,0,1,1.57.14,1.25,1.25,0,0,0,.88.06A1.26,1.26,0,0,1,15,73.19Zm2.79,5.46a6.34,6.34,0,0,1-.28-.92c-.08-.71-.24-.92-.94-1.08a6,6,0,0,1-1-.27.6.6,0,0,1-.3-.48,1.44,1.44,0,0,0-.7-1.55,1.11,1.11,0,0,1-.23-.36,2.62,2.62,0,0,1,.49-.27.69.69,0,0,1,.38.09,1,1,0,0,0,1.25-.3.78.78,0,0,1,1.27,0c.24.23.47.48.71.7a1.52,1.52,0,0,0,1.95,0,.57.57,0,0,1,.82,0,3.23,3.23,0,0,1,.47.51,1.3,1.3,0,0,0,2,.39c.33-.21.55-.16.73.22s.27.69.41,1a1.19,1.19,0,0,0,1,.8,1.33,1.33,0,0,1,1.17,1,2.92,2.92,0,0,0,1.45,1.6,2.31,2.31,0,0,0,.47.12l.06-.11c-.09-.11-.19-.21-.29-.32a11.62,11.62,0,0,1-.87-1,8.37,8.37,0,0,1-.54-1.08A1.59,1.59,0,0,0,26,76.54a1,1,0,0,1-.79-.69,6.39,6.39,0,0,0-.75-1.36.78.78,0,0,0-1.27,0c-.39.38-.66.38-1,0s-.47-.52-.73-.74a1.3,1.3,0,0,0-1.87,0,.51.51,0,0,1-.82,0,9,9,0,0,0-1.14-.92,1.14,1.14,0,0,0-1.71.27,1.16,1.16,0,0,1-.62.26,1.82,1.82,0,0,1-.51-.06,1.22,1.22,0,0,0-1.2.52c-.14.34,0,.74.53,1.08a1,1,0,0,1,.46.88v.83a9.35,9.35,0,0,1-1.12-1,8.32,8.32,0,0,1-.77-1.28l-.06.5-1.93-1.32v.66c.68-.15,1.1.29,1.54.69l.76.71c.14.14.33.29.36.46s-.16.3-.26.46c.92.09.89.13,1.22.37.61.46,1.25.87,1.88,1.29a1.26,1.26,0,0,0,.38.1l.05-.12c-.24-.11-.48-.22-.71-.35s-.43-.3-.68-.48a1.28,1.28,0,0,1,1.84.75A.77.77,0,0,0,17.78,78.65ZM6,65.43l0,.12,4.58,2.23-1,.65,0,.11c.26-.09.52-.19.79-.26s.6-.21.78-.11c1,.51,1.88,1.08,2.8,1.65.22.15.21.37-.08.49s-.41.19-.61.28l0,.12a3.81,3.81,0,0,0,.68-.2.84.84,0,0,1,1,.13c.4.36.78.73,1.18,1.1l.29.23.09-.1a5.27,5.27,0,0,1-.65-.78,6.69,6.69,0,0,1-.39-1l-.2.36a13.45,13.45,0,0,0-1.3-1,1.52,1.52,0,0,1-.69-1.4c0-.29-.06-.57-.09-.86h-.12L13,68.72a7.59,7.59,0,0,1-1.66-.91,4.68,4.68,0,0,1-.73-1.38c0,.16,0,.4,0,.63s-.1.4-.37.29c-.76-.31-1.61-.51-1.92-1.44a.89.89,0,0,0-.13-.18l-.05.59ZM19.81,80.74l-.08.07.48.66-1.46.2.24.43a3.43,3.43,0,0,1,.82-.33c.74-.06,1.47-.07,2.21-.07.45,0,.52.14.32.56-.11.22-.22.43-.34.64l.11.07c.15-.21.3-.41.44-.62a1.18,1.18,0,0,1,1.51-.61l1.06.2c.48.09.53.19.3.62-.14.27-.29.53-.44.8l.12.08c.19-.28.38-.56.58-.83a.77.77,0,0,1,.94-.33c.78.27,1.59.48,2.39.73.16,0,.31.13.46.19-.87-.83-2.24-.74-3-1.79-.12.44-.12.45-.49.37a4,4,0,0,1-2.42-.94l.17.61a11.13,11.13,0,0,0-1.42,0A2.63,2.63,0,0,1,19.81,80.74ZM26,78.44,24.09,76.7c0,.3-.17.27-.4.19s-.25-.07-.37-.12c-.77-.37-1.76-.37-2.18-1.31,0,0-.05,0-.1,0l.06.58c-1.27-.29-2.67,0-3.5-1.37,0,.58,0,.6-.55.47L16.63,75v.08l.69.42-.26.36a7.51,7.51,0,0,1,3.79.48l-.56.67a2.53,2.53,0,0,0,.44-.14A3.48,3.48,0,0,1,22,76.68a6.31,6.31,0,0,1,1.66.58C24.44,77.64,25.23,78.07,26,78.44Zm-7-10.12c-.11-.35-.2-.61-.29-.88-.22-.72.12-1.5-.26-2.21a1.92,1.92,0,0,1-.11-.55l-.14,0,.24,3.14-.89-.33-.07.09c.92.57,1.68,1.21,1.45,2.42l2,2.67L21,72.6c-.11-.18-.2-.36-.32-.53-.37-.55-.73-1.09-.31-1.77,0,0,0-.08,0-.14l-.5.38c-.51-.85-1-1.63-.49-2.63Zm4.85,2.06c.27.68.49,1.27.72,1.85s.22.54-.37.62c0,0,0,0,0-.06a4.88,4.88,0,0,1,1.06.85c.94,1.34,1.81,2.72,2.7,4.08l.92,1.42.12,0a4.17,4.17,0,0,1-.77-2.46l-.29.49c-.61-1.07-1.65-1.81-1.44-3.27l-.37.56c-.58-1-1.4-1.76-1.27-2.88C24,71.54,24.23,70.73,23.75,70.38Z"/><path d="M87.61,16.78c.21,0,.42.13.64.16a3.42,3.42,0,0,0,1,.09,1,1,0,0,1,1.14.42,1.3,1.3,0,0,0,1.18.6.79.79,0,0,1,.84.67,1.29,1.29,0,0,0,1.2,1.12,1,1,0,0,1,.87.87A1.69,1.69,0,0,0,95.42,22c.19.09.31.32.46.48l.26.25c.22-.55.13-.89-.35-1.13a1.25,1.25,0,0,1-.73-1,1.66,1.66,0,0,0-.62-1.15,1.28,1.28,0,0,0-.62-.25.82.82,0,0,1-.77-.53c-.12-.21-.23-.43-.36-.64a1.31,1.31,0,0,0-1.14-.6,1,1,0,0,1-.63-.25c-.61-.6-1.23-1.05-2.15-.66a.57.57,0,0,1-.41-.07,4.65,4.65,0,0,1-.59-.29,2.35,2.35,0,0,0-.29-.65,3.53,3.53,0,0,0-2.32-.93c-.1,0-.2,0-.3,0-.91-.05-1.43-.27-1.08-1.4a1.29,1.29,0,0,0-1.27-1.63H82c-.35,0-.58-.17-.61-.59A1.11,1.11,0,0,0,80.29,9.8c-.33-.05-.52-.18-.56-.54a1.17,1.17,0,0,0-.61-.84,2.22,2.22,0,0,1-.4-.41l.09-.13a6.86,6.86,0,0,0,1.08.21,1.42,1.42,0,0,0,.77-.15.58.58,0,0,1,.85.1,1.08,1.08,0,0,0,1.4.39.67.67,0,0,1,.86.31,2.42,2.42,0,0,0,2,1.09c0,.17,0,.33-.08.49a1.22,1.22,0,0,0,.68,1.62c.52.3.57.44.37,1a.94.94,0,0,0,.35,1.29A3.17,3.17,0,0,1,88.63,16c0,.06.1.09.21.19a1.86,1.86,0,0,0-.59-1.68,10,10,0,0,0-.8-.66.53.53,0,0,1-.16-.66,1.25,1.25,0,0,0-.63-1.81.74.74,0,0,1-.37-.9,1.58,1.58,0,0,0-.13-1.11,2.5,2.5,0,0,1-.39-2.11s.06,0,.08,0a9.52,9.52,0,0,1,1.44.8,2.19,2.19,0,0,1,.57.94c.23.6.33.71,1,.73.82,0,.82,0,1,.84a1.64,1.64,0,0,0,1.43,1.4,1.15,1.15,0,0,0-.2,1.54.49.49,0,0,1-.16.65c-.12.09-.23.17-.34.27a.71.71,0,0,0-.15,1c.12.19.31.34.44.53s.35.61.52.91l.16.23c.08-.08.23-.16.22-.22a2.35,2.35,0,0,0-.17-.74,3.4,3.4,0,0,0-.4-.56.61.61,0,0,1,.08-1c.57-.54.59-.7.31-1.44a1,1,0,0,1,0-.69,9.13,9.13,0,0,1,.69-1.11,15.57,15.57,0,0,1,1,1.36,2.14,2.14,0,0,1,.22.91,1.08,1.08,0,0,0,.61,1,1.06,1.06,0,0,1,.65,1.19,3.56,3.56,0,0,0,0,.65.89.89,0,0,0,.79.95.72.72,0,0,1,.61.76c0,.46.08.92.15,1.37a1.73,1.73,0,0,0,.59,1.3,1.69,1.69,0,0,0-.3,1.69.79.79,0,0,1-.22.6c-.55.61-.57.83-.25,1.59a1.74,1.74,0,0,1,0,.82c0,.11-.16.2-.21.32-.17.47-.41.51-.84.27a1.48,1.48,0,0,0-.91-.06.91.91,0,0,1-1.15-.62A1.62,1.62,0,0,0,91.39,24c-.07,0-.19,0-.2-.08-.1-.57-.84-.82-.7-1.51A1.1,1.1,0,0,0,90,21.28a.64.64,0,0,1-.2-.44,1.56,1.56,0,0,0-.72-1.48.75.75,0,0,1-.29-.49,1.64,1.64,0,0,0-.86-1.5,4.27,4.27,0,0,1-.44-.41Zm5.81,4.38-.39.71c-.5-.86-1.25-1.43-1.44-2.39-.42.35-.58-.23-1-.32.35.45.67.84,1,1.24.06.08.14.24.1.3-.16.28,0,.35.22.45.69.35.82,1.06,1.18,1.67l-.72.22c1.44.24,1.35,1.57,1.76,2.41l.49-1.74-.53.38C93.7,23.12,93.08,22.26,93.42,21.16ZM81.51,9.28l0,.15c.4.25.81.48,1.19.77.13.09.16.32.26.52a2.24,2.24,0,0,1,.82.24,20.17,20.17,0,0,1,1.58,1.48,2.42,2.42,0,0,1,.27.39l-.43.23,1.14.27a3,3,0,0,0-.25-.48c-.84-1-1.7-1.93-2.49-2.82-.16,0-.35.11-.47.05-.39-.2-.76-.46-1.14-.67A2.32,2.32,0,0,0,81.51,9.28Zm7.43,1.86c-.28.33-.39.21-.52,0-.3-.49-.64-1-1-1.44,0,.47.64.75.28,1.27a3,3,0,0,1,.58.6,12.56,12.56,0,0,1,.46,1.21c.13.33.11.59-.3.73.88,0,.89.9,1.44,1.25-.41-.57,0-1.11,0-1.71l-.47.5A3.68,3.68,0,0,1,88.94,11.14Zm3.63,4.39c.55,1,.5,2.38,1.57,3.33-.22-1-1.17-1.83-.48-2.92-.43.39-.52.37-.67-.13s-.21-.84-.34-1.34Z"/><path d="M87.24,16l-.35,1.24a2,2,0,0,1-1.32-.75c-.49.2-1.39-.31-2.35-1.26a2.35,2.35,0,0,1-.71,0,1.93,1.93,0,0,0-1.37-.09c1.11,0,1.77.73,2.67,1.11l-.39.48.33-.05a2,2,0,0,1,1.2.22,2.83,2.83,0,0,0,2.15.54c.33-.09,1.1.68,1,1A1.32,1.32,0,0,0,89,20a.44.44,0,0,1,.23.64,5.41,5.41,0,0,0-.13.85,2.37,2.37,0,0,1-1.29-1.44c0,.62-.1.72-.65.45a5,5,0,0,1-.74-.49l-1.22.15c.55.16,1.24.35,1.91.58a4.25,4.25,0,0,1,.92.48,1.81,1.81,0,0,1,.33.46l1.11.51-.06-.4c.36,0,.54.13.56.47a1.7,1.7,0,0,1,0,.39.93.93,0,0,0,.55,1,3.5,3.5,0,0,1,.35.23c-.33.47-.77.43-1.31,0,0-.25.19-.53.11-.68a1,1,0,0,0-1-.53c-.32,0-.64.06-1,.09a.84.84,0,0,1-.87-.51c-.4-.75-.56-.82-1.38-.63-.56.14-.59.11-.62-.45a1,1,0,0,0-.77-1c-.15,0-.29-.12-.43-.18l0-.13a2.16,2.16,0,0,1,.45-.19,1.47,1.47,0,0,0,1.23-.78.52.52,0,0,1,.73-.24,1.13,1.13,0,0,0,1,0c.22-.11.53,0,.91,0a.94.94,0,0,0-1-.36,2.06,2.06,0,0,1-.74-.06,1.3,1.3,0,0,0-1,0,.44.44,0,0,1-.35,0c-.58-.47-1.24-.27-1.88-.23A4.88,4.88,0,0,1,82,18a.55.55,0,0,1-.5-.65v-.22c0-1-.19-1.16-1.16-1.16-.77,0-.73,0-1-.7-.14-.32-.48-.54-.72-.81l-.4-.45c.2-.08.4-.24.59-.23a2.22,2.22,0,0,0,1.3-.37,1.13,1.13,0,0,1,1-.13A2.5,2.5,0,0,0,83,13.05c0-.37-.33-.41-.56-.34a2.79,2.79,0,0,1-1.49-.07,3.68,3.68,0,0,0-1,0,1.64,1.64,0,0,0-1.72-1.07c-.33,0-.66,0-1-.06s-.55-.21-.43-.59c0-.06,0-.12,0-.17a.93.93,0,0,0-.93-1.15c-.43,0-.87,0-1.3,0-.65,0-.82-.18-.76-.82a1.15,1.15,0,0,0-.67-1.31c-.11,0-.23-.28-.19-.37a.64.64,0,0,1,.37-.28.57.57,0,0,1,.38,0,1.13,1.13,0,0,0,1.17-.23.59.59,0,0,1,.56,0,1.25,1.25,0,0,0,1.24.26L78,7.55l.13-.13c-.09-.14-.15-.31-.28-.39a1.06,1.06,0,0,1-.49-.77,1.5,1.5,0,0,0-1.2-1.37.62.62,0,0,1-.33-.39,1.67,1.67,0,0,0-.94-1.31.94.94,0,0,1-.41-.56,1.77,1.77,0,0,0-.58-1.08,2,2,0,0,1-.24-.44,4.08,4.08,0,0,0,.42.06,6.89,6.89,0,0,0,1.28.05,1,1,0,0,1,1.11.37,1.44,1.44,0,0,0,1.86.65.78.78,0,0,1,.91.34,6.64,6.64,0,0,1,.62.94,1.66,1.66,0,0,0,1.24.9c1.13.22,1.38.54,1.49,1.7a5.41,5.41,0,0,0,.1.82,7.13,7.13,0,0,0,.26.78c-.52.37-.72.36-1.15-.07s-.79-.58-1.53-.21a1.58,1.58,0,0,1-.69,0,3.67,3.67,0,0,0-.72-.1.56.56,0,0,0-.37,1,1.86,1.86,0,0,1,.63,1.36c0,.48.47.67.86.73a.9.9,0,0,1,.84.86.91.91,0,0,0,.9.73,4.52,4.52,0,0,1,.52,0c.66.14,1.19.32.88,1.3s.27,1.51,1.26,1.71c.39.09.8.1,1.2.16A2.47,2.47,0,0,1,87.24,16ZM78.64,6a2.25,2.25,0,0,1,1.71.72c-.37-1-1.41-1.52-1.44-2.68-.2.35-.36.32-.58.09s-.53-.45-.79-.68l-.06,0,.26.51-.58.19a1.89,1.89,0,0,1,1.69.94C79.23,5.69,79.25,5.7,78.64,6ZM75.82,8.87c1.14-.44,1.81.65,2.86.86L77.33,8.3c0,.46-.29.35-.59.18S76,8,75.58,7.79l.26.17-.43.31C75.44,8.34,76,8.26,75.82,8.87Z"/><path d="M14.69,17.38c.37-.61.74-1.21,1.09-1.83a.46.46,0,0,0-.2-.7c-.32-.19-.33-.44-.13-.73l.28-.38c.5-.73.49-1-.09-1.72a1.07,1.07,0,0,0,1.15-.79c.08-.26.12-.53.18-.8s.05-.34.08-.51a.48.48,0,0,1,.53-.41,1.06,1.06,0,0,0,1.19-.89,1,1,0,0,1,.76-.77,2.65,2.65,0,0,0,.71-.47c.16-.12.3-.26.5-.43a2.39,2.39,0,0,1,.09.48,1.07,1.07,0,0,0,.38,1,.44.44,0,0,1,0,.69c-.23.28-.48.54-.7.83a.83.83,0,0,0,.09,1.32c.3.32.29.56-.07.83-.13.09-.27.16-.41.24a1,1,0,0,0-.51,1.31c0,.11.07.22.1.33a.69.69,0,0,1-.35.95,4.43,4.43,0,0,0-.9.7c-.13.14-.1.43-.15.66l.12.05a.69.69,0,0,1-.24.05,1.49,1.49,0,0,0-1.5.55c-.1.13-.42.14-.63.11a1,1,0,0,0-1.31.73c-.06.19-.12.38-.19.57-.2.54-.48.93-1.17.83-.53-.08-.86.3-1.22.71a1.47,1.47,0,0,1,.72-1.4c-.48-.24-.46-1,0-1.47.22-.19.47-.37.76-.6l-.69,0,1.07-3.14-.08,0c-.18.39-.37.78-.53,1.18s-.31.53-.73.13c.66,1.3-.48,2.14-.47,3.32l-.79-.42A5.13,5.13,0,0,1,12,18.56a1.18,1.18,0,0,1-.33,1.11c-.38-.15-.7-.39-1-.36s-.53.33-.88.57a4.82,4.82,0,0,0,.46-2.55A1.21,1.21,0,0,1,11,16.07a1.43,1.43,0,0,0,.88-1.46,2.88,2.88,0,0,1,0-.65.61.61,0,0,1,.65-.6.93.93,0,0,0,.85-.75A1,1,0,0,1,14,12c.23-.09.38-.36.55-.57a3.76,3.76,0,0,1,.3-.47.37.37,0,0,1,.34-.08c.05,0,.12.18.11.27A3.71,3.71,0,0,0,15.39,13a.81.81,0,0,1-.17.55c-.12.21-.31.38-.44.59A.94.94,0,0,0,15,15.44c.28.2.28.4.08.65a1.88,1.88,0,0,0-.37.53,3.62,3.62,0,0,0-.17.74ZM18,10.9a1.46,1.46,0,0,1-.18,1.49,6.13,6.13,0,0,0-.22.6c-.11.23-.22.5-.61.28.37,1.23-.35,2.18-.62,3.24.22-.26.33-.57.51-.82a3.2,3.2,0,0,1,.69-.63,7.12,7.12,0,0,1,.92-.46l-1.19.07c.35-1.18.63-2.29,1.79-2.87l-.6,0L19.2,10C18.8,10.25,18.92,11.09,18,10.9Z"/><path d="M24.88,13.63a2.1,2.1,0,0,1-.69-.07.9.9,0,0,0-1.23.18c-.12.12-.22.3-.37.36s-.46.2-.61.13a1.16,1.16,0,0,0-1.44.17s-.1,0-.15.07a7.56,7.56,0,0,1-.23-1.11.72.72,0,0,1,.24-.47c.25-.24.55-.42.79-.67a.79.79,0,0,0-.14-1.34c-.31-.2-.32-.41-.09-.67s.19-.22.29-.32c.72-.81.75-1,.29-2,1.31-.06,1.89-.88,2.15-2A2.85,2.85,0,0,1,24,5.07a.93.93,0,0,1,1.09-.5,1.16,1.16,0,0,0,1.38-.65c.12-.22.26-.45.38-.68A.46.46,0,0,1,27.58,3a1.05,1.05,0,0,0,1.48-.33,1.38,1.38,0,0,1,1.52-.56,2.85,2.85,0,0,0,.81,0c-.18.7-.06,1.45-.89,1.84-.61.29-.62.47-.42,1.13a.65.65,0,0,1-.23.77,6.49,6.49,0,0,1-1.14.85,1.69,1.69,0,0,1-1.11.05,1.19,1.19,0,0,0-1.71.55l-.17.3c-.27.42-.47.46-.89.19a1,1,0,0,0-1.68.32c-.24.36-.42.77-.66,1.12s-.62.83-.93,1.24l-.21.29.09.15c.19-.09.44-.12.54-.26.36-.47.67-1,1-1.46a7.75,7.75,0,0,1,.59-.9.52.52,0,0,1,.86,0c.75.65,1.22.59,1.74-.25a3.82,3.82,0,0,1,.39-.57.57.57,0,0,1,.8-.17,1.64,1.64,0,0,0,.71.09c.22,0,.45,0,.62,0A12.35,12.35,0,0,1,28.21,9c-.09.23-.41.39-.66.51-.79.37-.84.47-.72,1.35a.61.61,0,0,1-.24.47,4.59,4.59,0,0,1-.79.34A1.67,1.67,0,0,0,24.88,13.63Zm-4-.18.13.15c.7-.38,1.08-1.27,2-1.32,0,0,0,0,0-.07L22.85,12a2.59,2.59,0,0,1,2.3-1.17l-.56-.37L26.5,8.88c-.74.38-1.43.84-2.12,1.28a1.09,1.09,0,0,1-.49.23c-.11,0-.21-.22-.3-.31a3.26,3.26,0,0,1-.43,1C22.44,11.88,21.66,12.65,20.91,13.45Zm6.44-9.28c.09.79-.4,1.12-.88,1.47L26.06,6c-.5.38-.5.38-.92.13L24.8,7.42l.31-.24c.43-.37.86-.73,1.26-1.12a2.41,2.41,0,0,1,2.25-.73s0,0,0,0L28,4.92l1.5-1.28-.08-.09-1.12.82C27.8,4.73,27.76,4.73,27.35,4.17Z"/><path d="M66.79,86.75l.12.23a.75.75,0,0,1-.77-.39c-.74-1-1.42-1.16-2.4-.43a19.49,19.49,0,0,1-3.81,1.93,1.93,1.93,0,0,1-.34.09l.11-1.33c.2,0,.46,0,.71,0a2.67,2.67,0,0,0,2.31-2.11c.13-.52.22-1,.35-1.57a3.11,3.11,0,0,1,1-1.58.67.67,0,0,1,.84-.08,2.27,2.27,0,0,0,.34.19.87.87,0,0,0,1.23-.26c.3-.37.55-.77.84-1.16a3.57,3.57,0,0,1,.48-.55c.38-.32.67-.25.89.19a.77.77,0,0,0,1.36.22,11.29,11.29,0,0,1,.91-.92.91.91,0,0,1,1.31,0,2.46,2.46,0,0,0,1.46.3,3.09,3.09,0,0,1,.71.18v.18c-.3.16-.6.32-.9.46a1,1,0,0,0-.64.76c-.14.74-.39.95-1.14,1.07a5.79,5.79,0,0,0-.6.12.82.82,0,0,0-.59,1c.14.82-.07,1.14-.88,1.16a2,2,0,0,0-2.06,1.45C67.5,86.17,67.11,86.42,66.79,86.75Zm.94-5.28a4.33,4.33,0,0,1-.51.61c-.76.58-1.53,1.14-2.3,1.7l-.64.5-.11-.69a7.21,7.21,0,0,1-.7,1.74A8.06,8.06,0,0,1,62,86.6a1.28,1.28,0,0,0,.67-.23,7.11,7.11,0,0,0,1.19-1,1.45,1.45,0,0,1,1.9-.36c.3.12.62.19.92.28a10.32,10.32,0,0,0-1.35-.79c-.3-.15-.26-.31,0-.48.41-.34.84-.66,1.27-1a1.3,1.3,0,0,1,1.32-.13,8.52,8.52,0,0,0,.86.26l0-.1-1.25-.62a5.43,5.43,0,0,1,2.06-1.18,1.85,1.85,0,0,1,1.51-.07c.24.09.55.26.84,0-.24-.26-.77,0-.85-.53l.86-.37a.62.62,0,0,0-.43,0c-1,.38-2.06.78-3.09,1.14A2.38,2.38,0,0,1,67.73,81.47Z"/><path d="M19.89,23.16c.08-.19.19-.31.18-.42a1.43,1.43,0,0,0-.2-.7.5.5,0,0,0-.74,0,.78.78,0,0,1-1,0,3,3,0,0,0-.83-.18,4.24,4.24,0,0,1,.4-.31,2.71,2.71,0,0,1,.39-.17,1.05,1.05,0,0,0,.59-1.67.38.38,0,0,1,.1-.56,1.29,1.29,0,0,0,.57-1.39.86.86,0,0,1,.16-.48c.4-.71.22-1.06-.6-1.13l-.21,0c.46-.41.84-1,1.33-1.11s1.16-.68,1.85-.16c.17.13.62,0,.91-.15s.31-.29.46-.45a.47.47,0,0,1,.65-.12A1,1,0,0,0,25.07,14c.39-.27.75-.35,1.11.05.1.11.29.11.43.18s.23.12.24.19a.33.33,0,0,1-.14.29,2.54,2.54,0,0,0-1.07,1.13,1.37,1.37,0,0,1-.67.43c-.46.19-.81.42-.83,1s-.42.49-.76.57a3,3,0,0,0-1.46,1.28c-.23-.18-.44-.35-.66-.5a.83.83,0,0,0-1.24.08,1.32,1.32,0,0,1-.92.56c-.1,0-.2.18-.29.28.13.07.28.22.38.19a4.87,4.87,0,0,0,1-.47c.58-.37.62-.39,1,.17a.51.51,0,0,0,.59.2,2.51,2.51,0,0,1,1.09,0c.34.08.38.42.13.68s-.56.5-.56.93c0,.08-.14.17-.24.23A3.31,3.31,0,0,0,21,22.73C20.78,23.14,20.33,23.09,19.89,23.16Zm-.3-4.87c.34.22.43-.08.56-.22.73-.77,1.45-1.54,2.66-1.3,0,0,0,0,0-.06l-.26-.35a5.73,5.73,0,0,1,2.38-1c-.54-.13-1,.32-1.37-.21-.13.21-.2.47-.36.56-.61.31-1.25.56-1.88.84l-.2-.45C21.07,17.11,20.14,17.54,19.59,18.29Zm.72,3.32c.18-.78,1-.47,1.44-1a3.94,3.94,0,0,0-.44,0c-.77.19-.77.19-.88-.59l-.05,0-.06.07a.33.33,0,0,0-.05.12,1,1,0,0,1-.89,1,5,5,0,0,0-.87.35l0,.19A1.86,1.86,0,0,1,20.31,21.61Z"/><path d="M93.26,35.37c-.58,0-.85-.28-.85-.75s.08-.66.12-1a.82.82,0,0,0-.59-1l-.36-.15c-.56-.22-.63-.38-.43-1A1.1,1.1,0,0,0,90.44,30c-.25-.09-.51-.1-.76-.17a4.82,4.82,0,0,1-.91-.37.57.57,0,0,1-.23-.82c.39-.85.23-1.21-.65-1.56a5,5,0,0,1-.71-.32.88.88,0,0,1-.53-.91,1.59,1.59,0,0,0-.37-1.25c-.08-.1-.06-.28-.09-.42a1.08,1.08,0,0,1,.4,0A1.79,1.79,0,0,0,88,24.14a1.28,1.28,0,0,1,.86,0,5.77,5.77,0,0,1,.88.47,1,1,0,0,0,1,.05,1.21,1.21,0,0,1,1.65.72l-.25.11a.68.68,0,0,0-.38.93c.06.15.11.3.18.44a.81.81,0,0,1-.07.89,1.1,1.1,0,0,0,.34,1.76l.29.2c.83.65.67.92.21,1.44a.85.85,0,0,0,.37,1.36c.22.11.46.17.68.26a.52.52,0,0,1,.25.87,1.47,1.47,0,0,1-.29.32A1.07,1.07,0,0,0,93.26,35.37ZM91,26.5a1.46,1.46,0,0,0-.09.22c-.09.44-.15.46-.51.2a1.88,1.88,0,0,1-.9-1.16,1.81,1.81,0,0,0-.3-.48l0,.73-1.26-.6,0,.06.4.28-.12.42c.78-.22,1.19.32,1.67.69s.9.8,1.43,1.27Z"/><path d="M14.39,31a4.08,4.08,0,0,1,.25-.88A1.47,1.47,0,0,0,14.8,29a1.58,1.58,0,0,1,.11-.76c.05-.2.2-.38.24-.59a.67.67,0,0,0-.82-.74c-.49.1-1,.17-1.53.25,0-.41,0-.7,0-1s.08-.53.43-.57a4.59,4.59,0,0,0,.51-.1,1.22,1.22,0,0,0,1-1c.16-.89.52-1.13,1.4-1.06a1.18,1.18,0,0,0,1-.61c.41-.49.41-.5.9-.1a.78.78,0,0,0,.93,0l.58-.3.11.14a2.55,2.55,0,0,1-.3.41,1,1,0,0,0-.32.94,1.38,1.38,0,0,1-.69,1.62,2.43,2.43,0,0,0-.53.44.69.69,0,0,0-.08.91c.27.42.24.48-.21.65a1,1,0,0,0-.74,1.22c.13.61,0,.77-.58,1.09S15.06,30.6,14.39,31Zm2-4.51a3.09,3.09,0,0,1,.1-.62,4,4,0,0,1,.4-.61c.34-.51.93-.87.93-1.58l-.38-.08c.07.81-.53,1.21-1,1.75-.12-.17-.2-.29-.29-.4s-.19-.2-.28-.3l-.15,0c.75.75.27,1.4-.22,2.06Z"/><path d="M51,76.9c.23.12.44.2.64.32a1.22,1.22,0,0,1,.15,2.09,3,3,0,0,1-3.68-.23,1.24,1.24,0,0,1,.34-2,7.37,7.37,0,0,1,.94-.34c-.18-.1-.36-.18-.53-.29a1.1,1.1,0,0,1-.09-1.85,2.66,2.66,0,0,1,3.1.2,1.1,1.1,0,0,1-.2,1.75A5.23,5.23,0,0,1,51,76.9ZM50.94,78c0-.65-.21-1-.7-1s-.94.13-1.08.78a3.82,3.82,0,0,0-.07,1.12c0,.5.4.74.95.74s.69-.2.78-.71C50.87,78.63,50.9,78.32,50.94,78Zm-1.46-2.23c0,.57.24.83.72.87a.74.74,0,0,0,.89-.72,4.51,4.51,0,0,0,.07-.73c0-.37-.09-.69-.54-.77a.76.76,0,0,0-.91.48A6.56,6.56,0,0,0,49.48,75.79Z"/><path d="M61.29,79.21a2.6,2.6,0,0,0,1.77-2.69,5.17,5.17,0,0,1-.81.45,1.82,1.82,0,0,1-2-.45,1.68,1.68,0,0,1-.38-1.82,1.88,1.88,0,0,1,1.68-1.25A2.57,2.57,0,0,1,64.22,77,3.27,3.27,0,0,1,61.29,79.21Zm-.37-4.91c.27.72.5,1.39.78,2a.56.56,0,0,0,.77.29.85.85,0,0,0,.38-.64,3.44,3.44,0,0,0-.7-2.09.58.58,0,0,0-.75-.25C61.2,73.76,61.1,74,60.92,74.3Z"/><path d="M26.54,13.62l-1.21-.42a1.17,1.17,0,0,1,.72-1c.2-.09.43-.15.64-.25a1.11,1.11,0,0,0,.71-1.37.6.6,0,0,1,.19-.42,1.54,1.54,0,0,1,.47-.21,1.23,1.23,0,0,0,.84-1.19c0-.64,0-.6.65-.75a8.22,8.22,0,0,0,1.1-.49,1.49,1.49,0,0,1,.56-.06c.32,0,.65.06,1.08.11a3,3,0,0,1-.45.44.71.71,0,0,0-.3,1c.17.48,0,.66-.48.7a8.26,8.26,0,0,0-1,.08.63.63,0,0,0-.55.85c0,.13.06.26.08.38a.59.59,0,0,1-.51.76,6.44,6.44,0,0,1-.86.09,1.21,1.21,0,0,0-1.13.74C26.92,13,26.71,13.31,26.54,13.62ZM28.6,10.8c0-.22,0-.43.14-.51.61-.51,1.1-1.21,2-1.27l-.11-.61a14.38,14.38,0,0,0-2.87,2.42l.07.13Z"/><path d="M54,75.45a1.16,1.16,0,0,1,.7-.91,2.64,2.64,0,0,1,2.06-.15,1.56,1.56,0,0,1,1,2.17,4.1,4.1,0,0,1-1.55,1.82l-.4.3,0,.12c.72-.1,1.44-.18,2.15-.31.14,0,.27-.23.36-.38a2.19,2.19,0,0,1,.21-.4v1.85L54,79.93l-.14-.21a1.5,1.5,0,0,0,.41-.23c.53-.5,1.09-1,1.57-1.55a2.46,2.46,0,0,0,.46-2.52,1.08,1.08,0,0,0-1.22-.8.88.88,0,0,0-.84.64,1.4,1.4,0,0,1-.17.28Z"/><path d="M53.55,91.38c.72.26,1.33.45,1.92.72.2.1.33.38.47.59a4.13,4.13,0,0,1,.25.48l.16-.55c1,.09,1.25,1.07,1.91,1.59l-.17-.73.1-.11,2.25,1.21c-.53.48-1.17.85-.81,1.81-.27-.15-.41-.2-.54-.29a1.57,1.57,0,0,0-1.27-.41c-.11,0-.3-.13-.42-.24a2.3,2.3,0,0,1-.23-.41.93.93,0,0,0-1.05-.58.37.37,0,0,1-.49-.42,1.51,1.51,0,0,0-1.1-1.56A1.55,1.55,0,0,1,53.55,91.38Z"/><path d="M42.7,78.58c.8-.2,1-.36,1.16-1.2s.34-1.78.52-2.67c.06-.27,0-.37-.29-.41s-.58-.12-1-.2c.51-.33,1-.13,1.48-.23s.91-.23,1.42-.36c-.16.78-.31,1.55-.46,2.32-.13.6-.26,1.21-.38,1.82-.16.77-.06,1,.79,1.61Z"/><path d="M62.24,82.62A2.7,2.7,0,0,1,60,86.56c-.2,0-.41.12-.48-.19s-.06-.53.24-.66a1.76,1.76,0,0,0,1-1.13,2.84,2.84,0,0,0,.08-.66c0-.12,0-.31.12-.35.24-.12.55-.12.76-.27A3,3,0,0,0,62.24,82.62Z"/><path d="M57.5,90.88a1.79,1.79,0,0,1,1.6-.72,4,4,0,0,1,2.46,1.35,2.22,2.22,0,0,0,1.74.72c-.44.49-.84.64-1.33.42-.73-.34-1.43-.77-2.18-1.07S58.29,91.12,57.5,90.88Z"/><path d="M66.78,96.2c-.22.08-.47.27-.64.21a1,1,0,0,0-.91.24,5.52,5.52,0,0,1-.75.42c-.11.05-.35,0-.38,0a.54.54,0,0,1,0-.43.9.9,0,0,1,.84-.5c.59,0,1.18,0,1.76,0Z"/><path d="M24,47.16A17.49,17.49,0,0,1,28,44.51a54.34,54.34,0,0,1,11.52-4,63.6,63.6,0,0,1,15.81-1.39,58.9,58.9,0,0,1,15,2.36,36.39,36.39,0,0,1,10.73,5,1,1,0,0,1,.32.31l-.34-.17a53.48,53.48,0,0,0-17.6-6.18,63.69,63.69,0,0,0-14.4-.75,54.92,54.92,0,0,0-22.54,6.07c-.43.22-.87.46-1.29.7Z"/><path d="M79.24,55.46l-.37-.17a56,56,0,0,0-16.6-5.83,51.93,51.93,0,0,0-12.13-.86A48.67,48.67,0,0,0,27.9,55.1l-.3.16s-.05,0-.17,0c.95-.58,1.84-1.13,2.74-1.66a39.19,39.19,0,0,1,11.41-4.25,50.2,50.2,0,0,1,15.17-1.08,53.82,53.82,0,0,1,17.57,4.54c1.57.71,3.07,1.59,4.61,2.39l.35.23Z"/><path d="M53.63,40.88h3.16v0a1.57,1.57,0,0,1-.28.1c-.67.18-.85.4-.85,1.11l0,4.64v.44l-5.08-5.15-.15.08c0,.33,0,.67,0,1,0,.76,0,1.53.07,2.29s.17,1,1,1.29c0,0,.05,0,.14.12h-3.4V46.8l.78-.16a.51.51,0,0,0,.47-.53c0-1.45.06-2.89.06-4.34,0-.14-.2-.34-.35-.41A10.79,10.79,0,0,0,48.07,41a2.67,2.67,0,0,1,.33-.06c.78,0,1.56,0,2.34,0a.86.86,0,0,1,.56.21c1.15,1.18,2.28,2.37,3.5,3.51a8.62,8.62,0,0,0-.11-3C54.56,41.11,54.47,41.08,53.63,40.88Z"/><path d="M72.37,48.46c-.45.45-.86.89-1.31,1.3a.5.5,0,0,1-.41.11c-1.74-.45-3.49-.91-5.23-1.38,0,0-.09,0-.15-.12,1,.24,1.24-.42,1.48-1.13.34-1.06.73-2.1,1.08-3.15.23-.71.14-.88-.52-1.19a.17.17,0,0,1-.11-.14l5.6,1.48-.48,1.51a2.07,2.07,0,0,0-1.15-1.43c-.57-.22-1.17-.36-1.79-.55l-.62,1.91,2,.52-.48,1.48-.11.06c0-1.11-.63-1.45-1.59-1.56l-.73,2.16a3.6,3.6,0,0,0,2.84.4,6.83,6.83,0,0,0,1.16-.46C72.13,48.17,72.27,48.19,72.37,48.46Z"/><path d="M26.48,54.24a9.27,9.27,0,0,0,.29-1.39c.15-2.06.25-4.12.37-6.27l.46.32c1.32,1,2.65,2.05,4,3.1a2.1,2.1,0,0,0,1.74.57l-2.82,1.51c.09-.27.33-.62.25-.87s-.46-.5-.76-.79c-.25.53-.47,1-.66,1.4a.36.36,0,0,1-.46.26c-.44-.07-.89-.11-1.33-.17-.24,1-.13,1.12,1.29,1.07Zm1-3.26c.91.35,1.34-.23,1.76-.92l-1.76-1.25Z"/><path d="M42.06,41.8c1.22,1.47,2.39,2.88,3.55,4.31a2.13,2.13,0,0,0,1.6,1l-3.31.71c.83-.65.82-.91,0-1.62L42.7,47.56l-1.56-.7c-.44.78-.49,1.18.92,1.33l-2.49.56a15.66,15.66,0,0,0,.68-1.48c.59-1.72,1.14-3.45,1.71-5.18C42,42,42,42,42.06,41.8Zm1.23,3.66-1.47-1.34L41.3,46C42.26,46.39,42.52,46.32,43.29,45.46Z"/><path d="M35.54,43.59l2.72-.9c-.74.51-.66,1.3-.72,2-.13,1.5-.24,3-.38,4.49a.52.52,0,0,1-.23.35.56.56,0,0,1-.71-.06c-1.36-1.14-2.75-2.26-4.12-3.39a2.12,2.12,0,0,0-1.76-.66L34,44.21c0,.06,0,.1-.06.11-.82.56-.83.65-.09,1.33l2.23,2a.51.51,0,0,0,.15.07c.08-.61.16-1.2.23-1.79s.1-1,.15-1.51c.07-.68-.07-.82-.77-.77h-.24Z"/><path d="M75.14,51c1.51.58,2.93,1.7,4.77.76l-.63.76c-.22.27-.45.53-.68.8L73,50.72l6-3c-1.1-1-3.14-1.26-3.91-.54l.6-1.62L81.07,48l-5.93,2.83Z"/><path d="M64.29,41.93l-.12,2-.1,0-.13-.46a2.2,2.2,0,0,0-4.18-.17,3.52,3.52,0,0,0-.17,2.37A2.22,2.22,0,0,0,62.73,47a18,18,0,0,0,1.61-1.07l.27.24a4,4,0,0,1-4.47,1.39,3.09,3.09,0,0,1-2.21-3.12,3.19,3.19,0,0,1,2.6-3,6,6,0,0,1,1.84,0A16.51,16.51,0,0,1,64.29,41.93Z"/><path d="M52.61,10.3a2.54,2.54,0,1,1,2.54-2.55A2.55,2.55,0,0,1,52.61,10.3ZM51.17,8.62l2.44-2.19a1.66,1.66,0,0,0-2.44,2.19Zm.49.51a1.59,1.59,0,0,0,2.07-.08,1.63,1.63,0,0,0,.32-2.12Z"/></g></svg>