<svg id="Layer_1" data-name="Layer 1" xmlns="http://www.w3.org/2000/svg" viewBox="0 0 187.92 50.88"><defs><style>.cls-1{fill:#1a385f;}</style></defs><g id="bg5Erx"><path class="cls-1" d="M147.52,44.3c-2.83,0-5.49,0-8.15,0a.93.93,0,0,1-.75-.49c-2.28-3.92-4.61-7.8-6.88-11.72a.9.9,0,0,0-.92-.52c-1.06,0-2.13.07-3.19,0-.83-.07-1.06.22-1,1,0,3.52,0,7,0,10.57,0,.88-.16,1.22-1.13,1.18-1.9-.08-3.81,0-5.72,0-.61,0-.81-.15-.81-.8q0-16.78,0-33.57c0-.69.23-.88.88-.88,4.92,0,9.84-.06,14.75,0a11.37,11.37,0,0,1,9.81,5.25A10.32,10.32,0,0,1,145.83,21c-.34,4.22-2.28,7.43-6.22,9.25-.65.3-.28.59-.08.91l6.16,10.13ZM126.61,20.38h0c0,1.44,0,2.87,0,4.3,0,.4,0,.7.57.69,2.23,0,4.48.07,6.71-.08a4.59,4.59,0,0,0,4.4-4.6c.13-2.86-1.19-4.66-4-5.14-2.39-.41-4.83-.1-7.25-.16-.52,0-.42.38-.42.7Z"/><path class="cls-1" d="M45.08,21.91c0-4.6,0-8.38,0-12.16,0-.77.2-1,1-1,1.94.05,3.89,0,5.84,0,.66,0,.95.09.95.88,0,7.3,0,14.61,0,21.91,0,2.8,1.06,5.06,3.73,6,2.94,1,7.25.71,8.71-3.08a12.33,12.33,0,0,0,.64-4.52c0-6.68,0-13.36,0-20,0-.86.18-1.15,1.08-1.12,1.94.07,3.89,0,5.84,0,.55,0,.78.15.78.74,0,7.56,0,15.12-.11,22.68C73.44,37,71,40.5,67,42.92a12.15,12.15,0,0,1-5,1.48c-3.65.37-7.25.23-10.62-1.48a10.69,10.69,0,0,1-6-8.85C44.79,29.75,45.22,25.41,45.08,21.91Z"/><path class="cls-1" d="M34.7,35.73c0,2.56,0,5.13,0,7.7,0,.65-.11.88-.82.88-4.84,0-9.69.08-14.53-.06A13.41,13.41,0,0,1,8.68,39a10.55,10.55,0,0,1-2.37-6.55c0-3.52,0-7,0-10.56,0-7.33,4.84-11.82,11.56-12.62,5.36-.63,10.77-.13,16.16-.23.49,0,.7.12.69.68,0,1.72,0,3.45,0,5.17,0,.87-.51.71-1,.71-4.19,0-8.37,0-12.55,0a8,8,0,0,0-4.66,1.31A5.37,5.37,0,0,0,14,21.48c-.06,3.49-.16,7,0,10.46s2.06,5.46,6.11,5.79c2,.17,4.11,0,6.16.05.72,0,.62-.42.62-.86,0-3,0-5.94,0-8.91,0-.78.2-1,1-1,2,.05,4,0,5.94,0,.69,0,.86.2.85.87,0,2.6,0,5.21,0,7.82Z"/><path class="cls-1" d="M162.68,44.28c-2.42,0-4.85,0-7.27,0-.67,0-.92-.09-.89-.86.25-5.31.07-10.63.09-15.94,0-.49,0-.74.58-.74,2.17,0,4.33,0,6.49,0,.44,0,.6.09.59.63,0,3.19,0,6.38,0,9.57,0,.57.08.85.76.82,2.12-.1,4.25.06,6.37-.12a5.9,5.9,0,0,0,5.75-6.13c0-3.19-.09-6.39,0-9.57a6.06,6.06,0,0,0-5.79-6.25c-2.26-.18-4.55-.09-6.82-.1s-4.77,0-7.16,0c-.73,0-.91-.18-.87-.93.08-1.65.06-3.3,0-4.95,0-.56.16-.7.67-.69,5.35.1,10.72-.36,16,.22,5.06.56,8.91,3.06,10.88,8a9.94,9.94,0,0,1,.74,3.74c0,3.6,0,7.19,0,10.79a12.42,12.42,0,0,1-9.42,12c-2.93.78-5.9.49-8.86.57h-2Z"/><path class="cls-1" d="M112.2,44.29c-2.56,0-5,0-7.54,0-.6,0-.62-.4-.74-.76q-1.35-4-2.67-8c-1.92-5.87-3.83-11.75-6-17.65-.59,1.76-1.2,3.52-1.78,5.28C91.27,29.9,89,36.64,86.82,43.39a1.12,1.12,0,0,1-1.32.91q-2.81-.07-5.61,0c-.79,0-.85-.21-.61-.87Q83.51,31.9,87.7,20.34c1.27-3.5,2.56-7,3.78-10.52A1,1,0,0,1,92.64,9c2,0,3.89.06,5.84,0,.92,0,1.27.42,1.54,1.16q1.82,5.12,3.67,10.22c1.71,4.79,3.51,9.55,5.11,14.37C109.85,37.93,111.23,41,112.2,44.29Z"/></g></svg>