<?xml version="1.0" encoding="utf-8"?>
<!-- Generator: Adobe Illustrator 25.4.1, SVG Export Plug-In . SVG Version: 6.00 Build 0)  -->
<svg version="1.1" id="Layer_1" xmlns="http://www.w3.org/2000/svg" xmlns:xlink="http://www.w3.org/1999/xlink" x="0px" y="0px"
	 viewBox="0 0 149.8 83.3" style="enable-background:new 0 0 149.8 83.3;" xml:space="preserve">
<style type="text/css">
	.st0{fill:#398C34;}
</style>
<g id="Layer_2_00000133530675705168637460000014099587307472836230_">
	<polygon class="st0" points="34.4,51.2 29.6,60.8 3.6,9.5 13.9,9.5 	"/>
	<path class="st0" d="M122.7,16.7V20h17.8v-3.3H122.7z M55.6,9.5h-9.7l-4,7.2H26.6c-2.8,0-5.4,1.3-3.3,5.6
		c2,4.1,12.9,25.6,12.9,25.6L50.3,20h52.4v-3.3H51.9L55.6,9.5z M33,33.7c-2-3.9-4.7-9.1-5.2-10.2c-1.2-2.3-1-3.5,1.2-3.5h11L33,33.7
		z"/>
	<path class="st0" d="M58.6,23.5h-5.1l-6.6,27.2h3.1l2-9.1h7.3l2.3,9.1h3.6L58.6,23.5z M52.6,39.2l2.9-11.4l3.1,11.4H52.6z"/>
	<path class="st0" d="M82.8,30.2c0-2.6-1.5-6.8-5-6.8H67.6v27.2h3.8V37.1c0,0,4.2-0.1,5.2-0.1l0,0c1.6,0.1,2.6,2,2.6,3.8v9.9h3.5
		v-9.8c0-1.7-1.5-4.2-5-4.2C80.2,35.6,82.8,34.6,82.8,30.2z M75.2,35.6c-1.7,0-2.9-0.1-3.8-0.1V24.9h4.8c2,0,3.8,2,3.7,5.4
		S78.2,35.6,75.2,35.6z"/>
	<path class="st0" d="M86,27.3v18.6c0,2.7,2.8,5.4,8.2,5.4s7.6-2.7,7.6-5.1V35.6h-7.4v1.5l3.3,0.1v8.9c0,1.3-0.2,3.6-3.5,3.6
		s-4.3-1.4-4.3-3.7s-0.1-17.6,0-18.7c0.2-2.1,1.8-2.8,3.9-2.8c2.6,0,4,0.5,4,2.2v3.6h3.7v-3c0-1.7-2.6-4.7-7.6-4.7
		C87.9,22.8,86,26,86,27.3z"/>
	<path class="st0" d="M120.2,28.7c0-2.3-2.6-5.9-7.8-5.9s-7.8,3.7-7.8,5.9v16.8c0,1.6,2.1,5.7,7.8,5.7c5.7,0,7.7-4.1,7.8-5.7
		S120.2,30.1,120.2,28.7z M116.1,44.8c0,2.9-0.4,4.3-3.7,4.3s-3.8-1.7-3.8-4.9V29.9c0-3.9,0.8-5.1,3.9-5s3.7,1.5,3.7,5
		C116.1,31.1,116.1,43.5,116.1,44.8z"/>
	<polygon class="st0" points="124.3,23.5 124.3,51.3 126.2,51.3 126.2,29.7 136.5,51.3 140.8,51.3 140.8,23.5 138.2,23.5 
		138.2,46.6 127.6,23.5 	"/>
	<rect x="114.4" y="16.7" class="st0" width="2.5" height="3.2"/>
	<rect x="107.7" y="16.7" class="st0" width="2.5" height="3.2"/>
	<g id="h6jb4I">
		<path d="M130.6,55.8c2.4,0,4.7-0.1,7.1,0c1.8,0.1,3.3,1.4,3.7,3.1c0.9,2.4,0.2,4.3-2.2,6.3c2.7,1.5,3.1,3.9,2.6,6.6
			c-0.2,1.9-1.7,3.4-3.7,3.6c-2.5,0.2-5,0-7.5,0V55.8z M133.7,66.2v8.1c1.1,0,2.2,0,3.3,0c0.9,0.1,1.7-0.6,1.8-1.5
			c0-0.1,0-0.2,0-0.3c0-1.5,0-2.9,0-4.4c0.1-1-0.7-1.9-1.7-1.9c0,0,0,0,0,0C136,66.2,134.9,66.2,133.7,66.2L133.7,66.2z M133.7,64.5
			c1.1,0.1,2.2,0.1,3.3,0c0.5-0.1,1.2-0.6,1.3-1c0.2-1.6,0.3-3.1,0.2-4.7c-0.2-0.6-0.6-1.1-1.3-1.3c-1.2-0.1-2.4-0.1-3.5-0.1V64.5z"
			/>
		<path d="M60.9,75.6h-3c-0.5-1.7-1.7-5.3-2.1-6.7c-2,0-3.7,0.1-4.8,0.1c-0.4,1.9-1.2,5.9-1.3,6.3h-2.2c0.6-2.2,1.2-4.4,1.7-6.6
			c1-4,2.1-9,3.1-13h3.9C57.6,61.5,60.3,73.1,60.9,75.6z M53.3,59.7c-0.1,0-0.2,0-0.4,0c-0.5,2.6-1,5.7-1.3,7.9h4.1
			C55,64.9,54.1,62.3,53.3,59.7z"/>
		<path d="M124.8,69H120c-0.6,1.8-1.4,4.6-1.9,6.5H116c0.8-3,4.1-16,4.8-19.2h3.9c1.5,5.7,4.1,16.3,4.8,19.4h-3.1
			C126,73.7,125.3,71,124.8,69z M122.5,59.8h-0.4c-0.6,2.5-1.3,5.1-1.9,7.7h4.3C123.7,64.9,123.1,62.4,122.5,59.8L122.5,59.8z"/>
		<path d="M73.5,67.5c0-1.3,0-2.6,0-3.9c0-2,1.4-3.8,3.4-4.1c1.1-0.2,2.3-0.2,3.4,0c2.2,0.2,3.8,2.1,3.7,4.3c0.1,2.7,0,5.3,0,8
			c0,2.2-2.4,4.2-5.2,4.2s-5.3-1.4-5.3-5.3V67.5z M81.2,67.8c0-1.8,0-3.6,0-5.4c0-1.3-0.9-2-2.4-2.1s-2.6,0.7-2.6,1.9
			c0,3.6-0.1,7.2,0,10.8c0,1.2,1.1,2,2.5,2s2.5-0.8,2.5-2.1C81.2,71.2,81.2,69.5,81.2,67.8z"/>
		<path d="M96.6,70.8h2.1c0.1,0.8,0.2,1.6,0.3,2.3c0.3,1.2,1.3,1.8,2.8,1.7c1.2,0.1,2.3-0.8,2.5-2c0-0.2,0-0.3,0-0.5
			c0.2-3.4-0.2-3.9-3.6-4.2s-5-2.8-3.8-6.1c0.4-1.1,1.3-1.9,2.4-2.2c1.7-0.6,3.6-0.4,5.2,0.4c1.6,0.8,2.2,2.4,1.9,4.5h-2.2v-2.2
			c0-1.2-1.5-1.8-2.5-1.9c-1.1-0.1-2.1,0.5-2.4,1.5c-0.7,1.7-0.3,3.9,0.9,4.5c0.4,0.2,0.9,0.3,1.4,0.3c0.9,0.1,1.7,0.2,2.6,0.4
			c1.5,0.4,2.5,1.7,2.7,3.2c0.2,1.9,0,3.7-1.8,4.7c-1.8,1-4,1.2-6,0.4C96.9,74.8,96.1,73.1,96.6,70.8z"/>
		<path d="M85,60h2.2c0.8,2,2.5,5.6,3.5,7.8c0.4-0.9,0.8-1.6,1-2.3c0.6-1.5,1.8-4.1,2.4-5.6h1.5c-0.7,1.8-3.1,7-3.9,8.7
			c0,3.4,0,6.4,0,6.8H89c0-1.4,0-4.8,0-6.5C87.6,66.2,86.4,63.1,85,60z"/>
		<path d="M65.6,75.5h-2.5V55.8h2.5V75.5z"/>
		<path d="M70.7,75.5h-2.5V55.8h2.5V75.5z"/>
	</g>
</g>
</svg>
